<?xml version="1.0" encoding="UTF-8" standalone="no"?>
<svg
   xmlns:dc="http://purl.org/dc/elements/1.1/"
   xmlns:cc="http://creativecommons.org/ns#"
   xmlns:rdf="http://www.w3.org/1999/02/22-rdf-syntax-ns#"
   xmlns:svg="http://www.w3.org/2000/svg"
   xmlns="http://www.w3.org/2000/svg"
   xmlns:sodipodi="http://sodipodi.sourceforge.net/DTD/sodipodi-0.dtd"
   xmlns:inkscape="http://www.inkscape.org/namespaces/inkscape"
   id="a82be06c-7516-4112-b6b6-94de6b0bc637"
   data-name="Layer 1"
   viewBox="0 0 151.56 192.52206"
   version="1.1"
   sodipodi:docname="f3.svg"
   inkscape:version="0.92.1 r15371">
  <metadata
     id="metadata663">
    <rdf:RDF>
      <cc:Work
         rdf:about="">
        <dc:format>image/svg+xml</dc:format>
        <dc:type
           rdf:resource="http://purl.org/dc/dcmitype/StillImage" />
      </cc:Work>
    </rdf:RDF>
  </metadata>
  <defs
     id="defs661" />
  <sodipodi:namedview
     pagecolor="#ffffff"
     bordercolor="#666666"
     borderopacity="1"
     objecttolerance="10"
     gridtolerance="10"
     guidetolerance="10"
     inkscape:pageopacity="0"
     inkscape:pageshadow="2"
     inkscape:window-width="1920"
     inkscape:window-height="1017"
     id="namedview659"
     showgrid="false"
     inkscape:zoom="2.451667"
     inkscape:cx="-26.145031"
     inkscape:cy="143.64008"
     inkscape:window-x="-8"
     inkscape:window-y="-8"
     inkscape:window-maximized="1"
     inkscape:current-layer="a82be06c-7516-4112-b6b6-94de6b0bc637" />
  <title
     id="title2">33Зонт (четвертый блок)</title>
  <ellipse
     cx="79.274254"
     cy="136.0322"
     rx="61.791687"
     ry="40.277241"
     style="fill:#e1e1e1;stroke-width:0.81540895"
     id="ellipse4" />
  <polygon
     points="88.479 119.371 61.083 135.189 34.495 119.836 61.888 104.021 88.479 119.371"
     style="fill: #c6c6c6"
     id="polygon6" />
  <polygon
     points="147.198 132.422 108.726 154.634 71.39 133.075 109.858 110.866 147.198 132.422"
     style="fill: #c6c6c6"
     id="polygon8" />
  <polygon
     points="100.075 150.734 61.604 172.946 24.267 151.387 62.735 129.177 100.075 150.734"
     style="fill: #c6c6c6"
     id="polygon10" />
  <g
     id="g16">
    <path
       d="M78.09344,4.467H74.7699V133.64526h0a.83206.83206,0,0,0,.49127.67638,2.5975,2.5975,0,0,0,2.3472,0,.82993.82993,0,0,0,.485-.67638h0Z"
       style="fill: #5e5e5e"
       id="path12" />
    <path
       d="M77.60837,5.1437a2.5804,2.5804,0,0,1-2.3472,0,.71494.71494,0,0,1,0-1.35612,2.57845,2.57845,0,0,1,2.3472,0,.71712.71712,0,0,1,0,1.35612Z"
       style="fill: #5e5e5e"
       id="path14" />
  </g>
  <g
     id="g54">
    <polygon
       points="122.699 54.878 97.484 65.554 97.484 66.892 122.699 56.213 122.699 54.878"
       style="fill: #a5a6a9"
       id="polygon18" />
    <polygon
       points="67.824 67.433 39.198 60.162 39.198 61.498 67.824 68.769 67.824 67.433"
       style="fill: #a5a6a9"
       id="polygon20" />
    <polygon
       points="21.552 46.272 18.147 28.323 18.147 29.657 21.552 47.604 21.552 46.272"
       style="fill: #a5a6a9"
       id="polygon22" />
    <polygon
       points="134.716 39.106 122.699 54.878 122.699 56.213 134.716 40.446 134.716 39.106"
       style="fill: #cc9b12"
       id="polygon24" />
    <polygon
       points="97.484 65.554 67.824 67.433 67.824 68.769 97.484 66.892 97.484 65.554"
       style="fill: #cc9b12"
       id="polygon26" />
    <polygon
       points="39.198 60.162 21.552 46.272 21.552 47.604 39.198 61.498 39.198 60.162"
       style="fill: #cc9b12"
       id="polygon28" />
    <polygon
       points="76.436 3.635 131.311 21.161 134.716 39.106 76.436 3.635"
       style="fill: #f4f4f4"
       id="polygon30" />
    <polygon
       points="76.436 3.635 134.716 39.106 122.699 54.878 76.436 3.635"
       style="fill: #efbb1b"
       id="polygon32" />
    <polygon
       points="76.436 3.635 97.484 65.554 67.824 67.433 76.436 3.635"
       style="fill: #efbb1b"
       id="polygon34" />
    <polygon
       points="76.436 3.635 39.198 60.162 21.552 46.272 76.436 3.635"
       style="fill: #efbb1b"
       id="polygon36" />
    <polygon
       points="76.436 3.635 18.147 28.323 30.161 12.553 76.436 3.635"
       style="fill: #efbb1b"
       id="polygon38" />
    <polygon
       points="76.436 3.635 55.379 1.876 85.036 0 76.436 3.635"
       style="fill: #efbb1b"
       id="polygon40" />
    <polygon
       points="76.436 3.635 113.662 7.271 131.311 21.161 76.436 3.635"
       style="fill: #efbb1b"
       id="polygon42" />
    <polygon
       points="76.436 3.635 122.699 54.878 97.484 65.554 76.436 3.635"
       style="fill: #f4f4f4"
       id="polygon44" />
    <polygon
       points="76.436 3.635 67.824 67.433 39.198 60.162 76.436 3.635"
       style="fill: #f4f4f4"
       id="polygon46" />
    <polygon
       points="76.436 3.635 21.552 46.272 18.147 28.323 76.436 3.635"
       style="fill: #f4f4f4"
       id="polygon48" />
    <polygon
       points="76.436 3.635 30.161 12.553 55.379 1.876 76.436 3.635"
       style="fill: #f4f4f4"
       id="polygon50" />
    <polygon
       points="76.436 3.635 85.036 0 113.662 7.271 76.436 3.635"
       style="fill: #f4f4f4"
       id="polygon52" />
  </g>
  <g
     id="g180">
    <g
       id="g116">
      <polygon
         points="71.039 117.555 53.251 127.823 35.988 117.858 35.988 117.451 53.774 107.586 71.039 117.15 71.039 117.555"
         style="fill: #7d5b28"
         id="polygon56" />
      <polygon
         points="71.039 117.147 53.249 127.42 52.481 126.983 51.204 126.239 48.91 124.91 46.381 123.453 45.107 122.723 42.809 121.39 40.351 119.969 39.066 119.225 36.779 117.904 35.984 117.449 36.779 116.99 39.066 115.672 40.351 114.929 53.776 107.182 71.039 117.147"
         style="fill: #aa8c4a"
         id="polygon58" />
      <polygon
         points="55.962 108.446 38.177 118.713 38.125 118.682 55.91 108.415 55.962 108.446"
         style="fill: #d2a966"
         id="polygon60" />
      <polygon
         points="58.12 109.692 40.335 119.961 40.281 119.931 58.068 109.663 58.12 109.692"
         style="fill: #d2a966"
         id="polygon62" />
      <polygon
         points="60.279 110.937 42.49 121.206 42.439 121.177 60.225 110.906 60.279 110.937"
         style="fill: #d2a966"
         id="polygon64" />
      <polygon
         points="62.434 112.182 44.648 122.451 44.597 122.421 62.382 112.15 62.434 112.182"
         style="fill: #d2a966"
         id="polygon66" />
      <polygon
         points="64.592 113.425 46.807 123.697 46.753 123.667 64.541 113.398 64.592 113.425"
         style="fill: #d2a966"
         id="polygon68" />
      <polygon
         points="66.749 114.673 48.962 124.944 48.91 124.911 66.698 114.644 66.749 114.673"
         style="fill: #d2a966"
         id="polygon70" />
      <polygon
         points="68.905 115.918 51.122 126.187 51.069 126.16 68.854 115.889 68.905 115.918"
         style="fill: #d2a966"
         id="polygon72" />
      <path
         d="M39.67215,114.96832v4.61892l-2.2865-1.32173V116.179C38.12735,115.74465,38.90219,115.356,39.67215,114.96832Z"
         style="fill: #6c4b1f"
         id="path74" />
      <polygon
         points="40.959 114.933 40.959 118.824 39.672 119.587 39.672 114.933 40.959 114.933"
         style="fill: #7d5b28"
         id="polygon76" />
      <polygon
         points="45.711 118.507 45.711 123.081 43.415 121.749 43.415 118.507 45.711 118.507"
         style="fill: #6c4b1f"
         id="polygon78" />
      <polygon
         points="46.988 118.507 46.988 122.31 45.711 123.081 45.711 118.507 46.988 118.507"
         style="fill: #7d5b28"
         id="polygon80" />
      <polygon
         points="61.329 118.303 61.329 122.812 59.036 121.485 59.036 118.303 61.329 118.303"
         style="fill: #6c4b1f"
         id="polygon82" />
      <polygon
         points="62.607 118.303 62.607 122.054 61.329 122.812 61.329 118.303 62.607 118.303"
         style="fill: #7d5b28"
         id="polygon84" />
      <polygon
         points="53.231 123.002 53.231 127.516 50.939 126.187 50.939 123.002 53.231 123.002"
         style="fill: #6c4b1f"
         id="polygon86" />
      <polygon
         points="54.508 123.002 54.508 126.757 53.231 127.516 53.231 123.002 54.508 123.002"
         style="fill: #7d5b28"
         id="polygon88" />
      <polygon
         points="66.749 115.664 66.749 116.982 69.043 118.311 69.043 115.664 66.749 115.664"
         style="fill: #6c4b1f"
         id="polygon90" />
      <polygon
         points="69.043 115.664 69.043 118.311 70.321 117.552 70.321 115.664 69.043 115.664"
         style="fill: #7d5b28"
         id="polygon92" />
      <polygon
         points="71.039 115.799 53.251 126.07 35.988 116.105 35.988 115.725 53.774 105.834 71.039 115.423 71.039 115.799"
         style="fill: #997235"
         id="polygon94" />
      <g
         id="g112">
        <polygon
           points="71.039 115.423 53.251 125.694 35.988 115.725 53.774 105.456 71.039 115.423"
           style="fill: #d2a966"
           id="polygon96" />
        <polygon
           points="55.962 106.718 38.177 116.99 38.125 116.962 55.91 106.688 55.962 106.718"
           style="fill: #7c581d"
           id="polygon98" />
        <polygon
           points="58.12 107.963 40.335 118.235 40.281 118.206 58.068 107.935 58.12 107.963"
           style="fill: #7c581d"
           id="polygon100" />
        <polygon
           points="60.279 109.211 42.49 119.48 42.439 119.45 60.225 109.182 60.279 109.211"
           style="fill: #7c581d"
           id="polygon102" />
        <polygon
           points="62.434 110.454 44.648 120.725 44.597 120.694 62.382 110.423 62.434 110.454"
           style="fill: #7c581d"
           id="polygon104" />
        <polygon
           points="64.592 111.702 46.807 121.968 46.753 121.942 64.541 111.672 64.592 111.702"
           style="fill: #7c581d"
           id="polygon106" />
        <polygon
           points="66.749 112.947 48.962 123.22 48.91 123.187 66.698 112.918 66.749 112.947"
           style="fill: #7c581d"
           id="polygon108" />
        <polygon
           points="68.905 114.193 51.122 124.463 51.069 124.432 68.854 114.165 68.905 114.193"
           style="fill: #7c581d"
           id="polygon110" />
      </g>
      <polygon
         points="53.251 127.823 53.231 127.417 35.984 117.449 35.988 117.858 53.251 127.823"
         style="fill: #6c4b1f"
         id="polygon114" />
    </g>
    <polygon
       points="52.826 106.688 36.412 115.65 44.006 120.042 43.952 120.078 53.013 125.319 69.239 115.617 52.826 106.688"
       style="fill: #1c1c1c;opacity: 0.07999999821186066;isolation: isolate"
       id="polygon118" />
    <g
       id="g148">
      <g
         id="g128">
        <path
           d="M60.99225,96.03034l-1.63175-.94589-5.10955-2.944L41.11731,99.72419l5.1033,2.93945,1.6467.94841,5.63339,3.25016,13.10788-7.57546.00873-.00871Z"
           style="fill: #f5dba8"
           id="path120" />
        <path
           d="M54.251,92.40089,41.57886,99.72375l11.9223,6.79736L66.1608,99.27758Z"
           style="fill: #ebc78b"
           id="path122" />
        <polygon
           points="53.501 106.862 53.486 123.73 47.828 120.502 46.184 119.565 41.117 116.67 41.117 99.724 53.501 106.862"
           style="fill: #aa7b4b"
           id="polygon124" />
        <path
           d="M53.50073,106.86219l-.017,16.86819,13.13779-7.5148V99.28674Z"
           style="fill: #cda569"
           id="path126" />
      </g>
      <polygon
         points="47.828 103.636 47.828 120.502 46.184 119.565 46.184 102.691 47.828 103.636"
         style="fill: #8c8c8c;opacity: 0.33000001311302185;isolation: isolate"
         id="polygon130" />
      <polygon
         points="60.992 96.03 56.404 98.685 54.764 99.636 47.867 103.612 47.818 103.636 46.173 102.691 46.221 102.664 53.121 98.685 54.764 97.731 59.361 95.084 60.992 96.03"
         style="fill: #8c8c8c;opacity: 0.33000001311302185;isolation: isolate"
         id="polygon132" />
      <g
         id="g146">
        <polygon
           points="63.998 109.512 57.987 112.979 57.987 107.816 63.998 104.348 63.998 109.512"
           style="fill: #e2deda"
           id="polygon134" />
        <polygon
           points="63.429 105.898 58.558 108.71 58.558 108.128 63.429 105.318 63.429 105.898"
           style="fill: #3f3f3f"
           id="polygon136" />
        <polygon
           points="63.429 106.934 58.558 109.746 58.558 109.495 63.429 106.675 63.429 106.934"
           style="fill: #aeaba9"
           id="polygon138" />
        <polygon
           points="63.429 107.613 58.558 110.426 58.558 110.167 63.429 107.361 63.429 107.613"
           style="fill: #aeaba9"
           id="polygon140" />
        <polygon
           points="63.429 108.344 58.558 111.156 58.558 110.904 63.429 108.093 63.429 108.344"
           style="fill: #aeaba9"
           id="polygon142" />
        <polygon
           points="63.429 109.025 58.558 111.828 58.558 111.576 63.429 108.771 63.429 109.025"
           style="fill: #aeaba9"
           id="polygon144" />
      </g>
    </g>
    <g
       id="g178">
      <g
         id="g158">
        <path
           d="M58.92044,80.31394l-1.56592-.90773-4.90347-2.82529L39.84711,83.8588l4.89749,2.82091,1.58026.91014,5.40619,3.11908L64.3103,83.439l.00836-.00837Z"
           style="fill: #f5dba8"
           id="path150" />
        <path
           d="M52.451,76.83129,40.29,83.85882,51.73148,90.382l12.14907-6.95137Z"
           style="fill: #ebc78b"
           id="path152" />
        <polygon
           points="51.731 90.709 51.717 106.897 46.288 103.799 44.71 102.899 39.847 100.122 39.847 83.859 51.731 90.709"
           style="fill: #aa7b4b"
           id="polygon154" />
        <path
           d="M51.73145,90.70893l-.01636,16.18788L64.323,99.6851V83.439Z"
           style="fill: #cda569"
           id="path156" />
      </g>
      <polygon
         points="46.288 87.613 46.288 103.799 44.71 102.899 44.71 86.707 46.288 87.613"
         style="fill: #8c8c8c;opacity: 0.33000001311302185;isolation: isolate"
         id="polygon160" />
      <polygon
         points="58.92 80.314 54.517 82.862 52.943 83.774 46.325 87.59 46.277 87.613 44.699 86.707 44.745 86.68 51.367 82.862 52.943 81.946 57.355 79.406 58.92 80.314"
         style="fill: #8c8c8c;opacity: 0.33000001311302185;isolation: isolate"
         id="polygon162" />
      <g
         id="g176">
        <polygon
           points="61.805 93.252 56.037 96.58 56.037 91.624 61.805 88.297 61.805 93.252"
           style="fill: #e2deda"
           id="polygon164" />
        <polygon
           points="61.259 89.783 56.584 92.483 56.584 91.924 61.259 89.227 61.259 89.783"
           style="fill: #3f3f3f"
           id="polygon166" />
        <polygon
           points="61.259 90.778 56.584 93.477 56.584 93.235 61.259 90.53 61.259 90.778"
           style="fill: #aeaba9"
           id="polygon168" />
        <polygon
           points="61.259 91.43 56.584 94.129 56.584 93.881 61.259 91.188 61.259 91.43"
           style="fill: #aeaba9"
           id="polygon170" />
        <polygon
           points="61.259 92.131 56.584 94.83 56.584 94.588 61.259 91.891 61.259 92.131"
           style="fill: #aeaba9"
           id="polygon172" />
        <polygon
           points="61.259 92.784 56.584 95.475 56.584 95.233 61.259 92.54 61.259 92.784"
           style="fill: #aeaba9"
           id="polygon174" />
      </g>
    </g>
  </g>
  <g
     id="g430">
    <g
       id="g242">
      <polygon
         points="143.857 131.416 108.779 151.663 74.739 132.01 74.739 131.212 109.814 111.761 143.857 130.616 143.857 131.416"
         style="fill: #7d5b28"
         id="polygon182" />
      <polygon
         points="143.857 130.61 108.772 150.874 107.263 150.008 104.744 148.54 100.22 145.92 95.236 143.038 92.716 141.598 88.192 138.978 83.34 136.176 80.807 134.713 76.299 132.109 74.731 131.207 76.299 130.305 80.807 127.7 83.34 126.24 109.814 110.96 143.857 130.61"
         style="fill: #aa8c4a"
         id="polygon184" />
      <polygon
         points="114.129 113.456 79.054 133.703 78.949 133.642 114.026 113.391 114.129 113.456"
         style="fill: #d2a966"
         id="polygon186" />
      <polygon
         points="118.379 115.912 83.306 136.158 83.206 136.1 118.283 115.849 118.379 115.912"
         style="fill: #d2a966"
         id="polygon188" />
      <polygon
         points="122.636 118.37 87.559 138.612 87.46 138.559 122.537 118.305 122.636 118.37"
         style="fill: #d2a966"
         id="polygon190" />
      <polygon
         points="126.888 120.818 91.813 141.07 91.715 141.012 126.787 120.763 126.888 120.818"
         style="fill: #d2a966"
         id="polygon192" />
      <polygon
         points="131.141 123.274 96.069 143.528 95.97 143.47 131.042 123.221 131.141 123.274"
         style="fill: #d2a966"
         id="polygon194" />
      <polygon
         points="135.398 125.74 100.323 145.986 100.224 145.92 135.296 125.671 135.398 125.74"
         style="fill: #d2a966"
         id="polygon196" />
      <polygon
         points="139.651 128.19 104.578 148.444 104.478 148.379 139.553 128.13 139.651 128.19"
         style="fill: #d2a966"
         id="polygon198" />
      <path
         d="M82.00082,126.31322v9.10986l-4.50708-2.60951V128.7005C78.95776,127.85664,80.4877,127.08105,82.00082,126.31322Z"
         style="fill: #6c4b1f"
         id="path200" />
      <polygon
         points="84.54 126.248 84.54 133.917 82.001 135.423 82.001 126.248 84.54 126.248"
         style="fill: #7d5b28"
         id="polygon202" />
      <polygon
         points="93.913 133.293 93.913 142.313 89.388 139.693 89.388 133.293 93.913 133.293"
         style="fill: #6c4b1f"
         id="polygon204" />
      <polygon
         points="96.43 133.293 96.43 140.794 93.913 142.313 93.913 133.293 96.43 133.293"
         style="fill: #7d5b28"
         id="polygon206" />
      <polygon
         points="124.712 132.897 124.712 141.785 120.183 139.172 120.183 132.897 124.712 132.897"
         style="fill: #6c4b1f"
         id="polygon208" />
      <polygon
         points="127.229 132.897 127.229 140.292 124.712 141.785 124.712 132.897 127.229 132.897"
         style="fill: #7d5b28"
         id="polygon210" />
      <polygon
         points="108.746 142.156 108.746 151.062 104.22 148.444 104.22 142.156 108.746 142.156"
         style="fill: #6c4b1f"
         id="polygon212" />
      <polygon
         points="111.263 142.156 111.263 149.556 108.746 151.062 108.746 142.156 111.263 142.156"
         style="fill: #7d5b28"
         id="polygon214" />
      <polygon
         points="135.398 127.69 135.398 130.287 139.927 132.912 139.927 127.69 135.398 127.69"
         style="fill: #6c4b1f"
         id="polygon216" />
      <polygon
         points="139.927 127.69 139.927 132.912 142.443 131.411 142.443 127.69 139.927 127.69"
         style="fill: #7d5b28"
         id="polygon218" />
      <polygon
         points="143.857 127.958 108.779 148.204 74.739 128.557 74.739 127.809 109.814 108.303 143.857 127.212 143.857 127.958"
         style="fill: #997235"
         id="polygon220" />
      <g
         id="g238">
        <polygon
           points="143.857 127.212 108.779 147.464 74.739 127.809 109.814 107.555 143.857 127.212"
           style="fill: #d2a966"
           id="polygon222" />
        <polygon
           points="114.129 110.051 79.054 130.297 78.949 130.239 114.026 109.99 114.129 110.051"
           style="fill: #7c581d"
           id="polygon224" />
        <polygon
           points="118.379 112.507 83.306 132.75 83.206 132.697 118.283 112.448 118.379 112.507"
           style="fill: #7c581d"
           id="polygon226" />
        <polygon
           points="122.636 114.962 87.559 135.214 87.46 135.153 122.537 114.907 122.636 114.962"
           style="fill: #7c581d"
           id="polygon228" />
        <polygon
           points="126.888 117.418 91.813 137.667 91.715 137.609 126.787 117.36 126.888 117.418"
           style="fill: #7c581d"
           id="polygon230" />
        <polygon
           points="131.141 119.876 96.069 140.13 95.97 140.064 131.042 119.818 131.141 119.876"
           style="fill: #7c581d"
           id="polygon232" />
        <polygon
           points="135.398 122.332 100.323 142.588 100.224 142.527 135.296 122.268 135.398 122.332"
           style="fill: #7c581d"
           id="polygon234" />
        <polygon
           points="139.651 124.785 104.578 145.038 104.478 144.978 139.553 124.727 139.651 124.785"
           style="fill: #7c581d"
           id="polygon236" />
      </g>
      <polygon
         points="108.779 151.663 108.746 150.859 74.731 131.207 74.739 132.01 108.779 151.663"
         style="fill: #6c4b1f"
         id="polygon240" />
    </g>
    <g
       id="g252">
      <g
         id="g248">
        <path
           d="M126.9487,116.50564l-2.02225,1.16467-.2287.13918h-.00383l-3.19184,1.83909-.0026.00751-.71893.40668-.15262.09364-.73782.42194-10.67759,6.16922h-.00132l-.542.30836-1.24407.72-.00519.00492-.55465.32337-.11487.0683h-.00492l-.27291.1591h-.00516l-1.694.9828h0l-.298.16686L97.31436,133.622h-.00491l-.44834.25766h-.00387l-5.56827,3.2159-.04916-.03285-.07708-.043-.41418-.2424-.07218-.03545h-.00619l-.49775-.29544-.187-.10373-1.13053-.64416-.053-.04554-.71478-.41185-.26413-.14642-.6214-.36632-.08356-.043-.53032-.3107-.12262-.06312-.67341-.39426-.20565-.11874h-.00516l-.758-.44212L84.746,133.321l-.38415-.22714-.15781-.09107-.5469-.3107-.081-.04812-.99676-.57587-.21212-.12132-.78049-.45479-.05563-.03287-.29053-.16659-.07452-.04813-.65451-.37123h-.00232l-.16947-.10115-.6315-.36632-.038-.02768-.50525-.28561-.19455-.10607-1.60809-.92976v-1.9529l35.661-18.63934.80973.46722.22869.13633,1.11291.64186.27915.1591,1.01438.59113.18808.10115.49152.29052h.00619l.03156.01761.92587.53058.23259.14151.64543.37151.05173.03026,1.03583.596.21472.12909.22223.11847.11123.06571.63666.36631.09082.0608.3588.19712.08587.053.379.21473.18833.11357.55441.31589.23617.14148.244.14151h.00879l.1022.068.40928.2349.21988.12651.21732.12624h.00879l.12134.07063.26644.15677.11355.06053,2.08176-.74764Z"
           style="fill: #976c2f"
           id="path244" />
        <path
           d="M126.94119,114.55531l-2.00853,1.15716-.22844.13634h-.01657l-3.18564,1.83935-.00258.01009-.71894.41418-.15261.09107-.74039.42453-10.6763,6.1793-.542.29569-1.24408.72255-.55985.3107-.11486.08589h-.014l-.2639.1516-1.69912.97761h-.0075l-.29053.17179-7.16107,4.14077-.4509.26283h-.00879l-5.56566,3.20582-.04529-.0225-.07837-.05071-.41443-.23981-.07812-.04812-.50778-.27292-.17954-.12366-1.13053-.64674-.05564-.02535-.70727-.41935-.27163-.14643-.61648-.34872-.0882-.06571-.52439-.30578-.12625-.06313-.677-.3865-.19714-.13143h-.014l-.75776-.42427-.07321-.04812-.37769-.2274-.15548-.07581-.5557-.326-.081-.04787-.99678-.581-.20955-.11875-.7844-.44961-.05432-.03545-.29828-.16919-.06571-.04553-.65036-.37641h-.0101l-.17047-.09106-.62787-.3764-.038-.02019-.50785-.28043-.192-.11874-1.6081-.93727,4.996-2.87.03027-.02767.16168-.07582.029-.02536.27164-.16168.03156-.02276.16169-.09081.03286-.02794,14.18194-8.17286.26776-.15651.38263-.21473.25766-.14409,14.85639-8.58445.80352.47238.23981.11874,1.11035.65166.283.15677,1.00427.60122.19455.0859.49515.30809.0264.01529.92717.51532.24266.13893.63925.38417.05924.015,1.032.609.21109.11123.33606.21706.64288.34382.0846.053.35132.20463.09078.06055.379.2072.17929.11357.56346.32337.23616.13891.244.14669h.01371l.09729.06312.403.2349.2287.11874.21212.14151h.01629l.11644.07063.26257.14669.12393.06312.45713.27785.14538.07087.35752.20955.11227.07087.47368.28044.04554.0251Z"
           style="fill: #cf9b55"
           id="path246" />
      </g>
      <polygon
         points="91.289 135.143 91.289 137.096 77.362 129.057 77.362 127.104 91.289 135.143"
         style="fill: #714914"
         id="polygon250" />
    </g>
    <g
       id="g262">
      <g
         id="g258">
        <path
           d="M142.80292,125.53506l-2.021,1.16958-.2287.14151h-.00363l-3.18976,1.83935-.015.00491-.70108.40926-.1578.08589-.74039.42945-10.68148,6.16949h-.0026l-.5368.30579-1.24539.72255h-.00519l-.55438.32571-.11643.07088h-.00492l-.27423.15394h-.00232l-1.69912.9854h0l-.29544.17177-7.15616,4.13067c-.00492,0-.00492,0-.00492.00492l-.44962.25274v.01009L107.1421,146.125l-.04813-.02794-.0758-.04787-.41934-.23489-.07453-.04321h0l-.49643-.29285-.18316-.10115-1.13312-.65425-.05667-.04034-.71765-.40952-.25507-.14125-.62915-.36632-.0784-.0406-.53163-.31069-.12393-.07063-.66952-.39166-.21085-.11359h-.00259l-.76551-.45221-.06932-.03544-.3816-.2199-.15908-.0908-.54587-.31588-.08072-.05044-.99548-.57613-.21473-.12365-.78309-.4473-.05563-.03026-.28793-.17438-.07837-.03544-.65064-.379h-.00364l-.16555-.096-.63407-.37125-.0468-.0202-.50267-.29053-.19091-.10864-1.6029-.93494v-1.95267l35.65362-18.63472.81723.47266.22483.12883,1.11291.64157.27786.1617,1.01438.58363.18677.11124.49281.28793h.00751l.03543.02278.91708.528.23747.1389.64777.36632.05072.03546,1.03815.59863.20849.11616.22739.13659.11.06572.63664.35855.0921.05822.35364.19947.08979.053.3764.21988.18445.1035.55206.32338.2424.14409.244.134h.00751l.10245.06569.41159.22974.2186.13659.21731.12883h.00388l.125.07064.26648.15417.11874.058,2.07788-.745Z"
           style="fill: #976c2f"
           id="path254" />
        <path
           d="M142.80292,123.59222l-2.021,1.15458-.22119.13633h-.0163l-3.18562,1.83678a.01284.01284,0,0,1-.013.01271h0l-.001-.00005-.70108.41419-.1578.08589-.744.42944-10.68045,6.17467-.53679.30061-1.24927.71738-.55569.31589-.11643.08588h-.0101l-.269.149-1.69629.97529h-.01138l-.28922.1767-7.15616,4.14334-.44834.25508h-.01138l-5.56931,3.211-.04294-.02019-.07452-.05561-.42581-.23981-.07453-.038-.50265-.28535-.18081-.11382-1.12925-.64933-.058-.03287-.70755-.41936-.27034-.13891-.61389-.35106-.09211-.06313-.52671-.30836-.12393-.068-.67572-.379-.20074-.134h-.00766l-.76679-.42427-.06674-.04812-.37769-.23-.16169-.07063-.54715-.32856-.08071-.04293-.99549-.586-.21213-.11875-.78826-.45221-.05691-.03027-.28794-.17436-.07193-.04294-.6444-.37408H96.3634l-.16946-.09858-.62631-.36631-.04941-.02768-.50266-.27785-.19091-.11874-1.60292-.94245,4.99084-2.86485.03284-.02277.15548-.07838.03778-.02251.26777-.16685.03051-.02019.15909-.09856.03518-.01526,14.18064-8.17775.27292-.15911.37771-.21473.259-.14669,14.85378-8.57435.81208.45971.23617.12626,1.10672.64933.27787.15677,1.01437.596.19067.091.49259.30319.03415.02768.92227.50783.245.134.64029.38132.0582.02278,1.03067.609.2085.11357.34121.21238.6377.34588.08978.053.34613.21238.0921.04554.38028.217.17929.11123.56087.32338.23747.14151.244.14151h.0137l.10245.0657.40048.23749.22739.11357.20825.13892h.01266l.12625.0758.259.14411.12133.06312.45868.28043.149.07064.35751.2098.11615.07063.46979.27811.038.02276Z"
           style="fill: #cf9b55"
           id="path256" />
      </g>
      <polygon
         points="107.142 144.175 107.142 146.125 93.222 138.086 93.222 136.133 107.142 144.175"
         style="fill: #714914"
         id="polygon260" />
    </g>
    <g
       id="g272">
      <g
         id="g268">
        <path
           d="M126.9487,113.40589l-2.02225,1.16985-.2287.13633h-.00383l-3.19184,1.83678-.0026.00491-.71893.40927-.15262.091-.73782.42946-10.67759,6.16687h-.00132l-.542.30812-1.24407.72h-.00522l-.55466.32855-.11486.06313h-.00492l-.27292.16169h-.00515l-1.694.98539h0l-.298.17179-7.16107,4.12549-.00491.0026-.44834.26025-.00387.01009-5.56827,3.211-.04916-.038-.07708-.03545-.4142-.245-.07216-.043h-.00619l-.49775-.29053-.187-.10089-1.13052-.65193-.053-.03287-.71478-.41185-.26413-.15159-.6214-.36632-.08356-.04294-.53033-.3107-.12261-.0657-.67341-.38651-.20565-.12366h-.00516l-.758-.43978-.07685-.04294-.38415-.22223-.1578-.096-.54691-.30578-.081-.05045-.99675-.57847-.21213-.11875-.78049-.45221-.05563-.038-.29053-.1666-.07452-.038-.65451-.37641h-.00232l-.16947-.10348-.6315-.364-.038-.02768-.50525-.2856-.19455-.11357-1.60809-.92978v-1.95036l35.661-18.63443.80972.47238.2287.12886,1.11291.64183.27915.16169,1.01438.58338.18808.10864.49152.28561h.00619l.03156.02768.92587.52568.23257.13892.64545.36632.05172.03776,1.03583.59629.21472.11874.22223.12885.11123.07062.63666.35882.09082.06055.3588.1997.08587.053.379.21473.18833.11357.55441.31588.23617.14151.244.1389h.00879l.10221.06572.40928.23.21987.12885.21732.13142h.00879l.12134.07321.26645.1516.11354.06312,2.08176-.75282Z"
           style="fill: #976c2f"
           id="path264" />
        <path
           d="M126.94119,111.45551l-2.00853,1.15459-.22844.14151h-.01657l-3.18564,1.8391-.00258.0075-.71894.41445-.15261.0859-.74039.432-10.6763,6.17439-.542.2957-1.24408.72-.55985.31587-.11486.08823h-.014l-.2639.14409-1.69912.97764h-.0075l-.29053.17437-7.16107,4.14592-.4509.25766h-.00879l-5.56566,3.211-.04529-.02534-.07837-.05561-.41443-.23489-.07812-.04555-.50784-.27785-.17954-.11874-1.13053-.64674-.05564-.03777-.70727-.40694-.27163-.15159-.61648-.34355-.0882-.06313-.52439-.31329-.12625-.06055-.677-.38649-.19714-.134h-.014l-.75776-.42453-.07321-.04527-.37769-.22741-.15548-.07087-.5557-.3283-.081-.05045-.99678-.5787-.20955-.12626-.7844-.4496-.05433-.02794-.29827-.1767-.06571-.038-.65036-.38132h-.0101l-.17047-.09624-.62787-.36631-.038-.02767-.50785-.27295-.192-.12365-1.60811-.93235,4.996-2.86977.03027-.02276.16168-.08587.029-.02278.27164-.15936.03155-.02768.16169-.09106.03286-.0176,14.182-8.18528.26776-.14928.38263-.21964.25766-.13893,14.85638-8.5847.80353.4698.23981.12133,1.11035.65191.283.15653,1.00428.5963.19455.0908.49514.30087.0264.02019.92718.51792.24265.13633.63925.379.05925.02277,1.032.60612.21109.11124.33606.21214.64289.3513.0846.058.35131.19713.09079.05562.379.21732.17929.11123.56345.32829.23617.134.244.14643h.0137l.09729.06313.40306.23748.2287.11383.21212.13893h.01629l.11644.07321.26257.14643.12393.05819.45713.28794.14538.06828.35751.20955.11228.0657.47369.283.04553.02276Z"
           style="fill: #cf9b55"
           id="path266" />
      </g>
      <polygon
         points="91.289 132.04 91.289 133.998 77.362 125.952 77.362 124.001 91.289 132.04"
         style="fill: #714914"
         id="polygon270" />
    </g>
    <g
       id="g282">
      <g
         id="g278">
        <path
           d="M142.80292,122.44282l-2.021,1.16469-.2287.13374h-.00363l-3.18976,1.83935-.015.01243-.70108.40924-.1578.08356-.74039.42686-10.68145,6.16689h-.0026l-.5368.31821-1.24539.715h-.00519l-.55438.31847-.11643.07581h-.00492l-.27423.15393h-.00232l-1.69912.9828h0l-.29544.17436-7.15616,4.13068c-.00492,0-.00492,0-.00492.01008l-.44962.25766h0l-5.57446,3.211L107.094,143l-.0758-.043-.41934-.24007-.07453-.043h0l-.49643-.28793-.18316-.10632-1.13312-.64908-.05662-.0406-.71765-.41159-.25508-.14669-.62915-.35882-.0784-.04787-.53162-.31329-.12393-.06829-.66952-.38391-.21085-.12391h-.00259l-.76551-.44445-.06933-.0406-.38159-.22482-.15909-.08588-.54587-.31561-.08072-.04294-.99548-.58363-.21472-.12133-.78308-.44729-.05564-.03287-.28794-.17177-.07836-.043-.65063-.36865h-.00364l-.16555-.10373-.63407-.37382-.04681-.02019-.50266-.283-.19092-.11357-1.6029-.92976v-1.95293l35.65353-18.64219.81723.47756.22482.134,1.11292.64417.27786.15419,1.01437.58364.18677.111.49281.28559h.00751l.03543.02019.91709.53292.23747.14151.64776.36631.05072.03028,1.03815.59629.2085.12886.22738.12391.11.06571.63666.36631.0921.053.35364.20953.08978.04813.3764.21472.18445.11357.55206.311.24241.14642.244.14151h.00751l.10244.06312.41159.2349.2186.12623.21732.12651h.00387l.125.07579.26648.15161.11875.06571,2.07788-.75307Z"
           style="fill: #976c2f"
           id="path274" />
        <path
           d="M142.80292,120.4873l-2.021,1.15976-.22119.13374h-.0163l-3.18562,1.8391s0,.00776-.014.00776l-.70108.42195-.1578.09079-.744.42453-10.68045,6.16923-.53679.30087-1.24927.72747-.55569.30578-.11643.096h-.0101l-.269.14151-1.69629.97763h-.01138l-.28922.17178-7.15616,4.14566-.44834.25794h-.01138l-5.56931,3.211-.04294-.02792-.07452-.053-.42581-.23749-.07453-.04294-.50265-.28043-.18081-.11616-1.12925-.64417-.058-.03544-.70755-.41185-.27034-.14643-.61389-.35363-.09211-.06079-.52671-.30553-.12393-.06339-.67572-.3865-.20074-.13634h-.00766l-.76679-.42453-.06674-.04292-.37769-.23232-.16169-.07087-.54715-.33089-.08071-.04294-.99549-.58363-.21213-.12107-.78826-.4522-.05691-.03287-.28794-.172-.07193-.03776-.6444-.38651H96.3634l-.16946-.08589-.62631-.37149-.04941-.02277-.50266-.27785-.19091-.12365-1.60292-.93727,4.99084-2.87.03284-.02019.15548-.0758.03778-.02794.26777-.1617.03051-.02276.15909-.096.03518-.015,14.18064-8.18554.27292-.149.37771-.22223.259-.13916,14.85378-8.58963.81208.47266.23617.12366,1.10672.64674.27787.15677,1.01437.60123.19067.09079.49259.30062.03415.01526.92227.52285.245.134.64029.38391.0582.02045,1.03067.60871.2085.11123.34121.21215.6377.34615.08978.06053.34613.19972.0921.05562.38028.21215.17929.10865.56087.32829.23747.134.244.14643h.0137l.10245.06829.40048.23748.22739.11125.20825.14151h.01266l.12625.068.259.14669.12133.06569.45868.28276.149.0657.35751.21473.11615.07087.46979.28043.038.02019Z"
           style="fill: #cf9b55"
           id="path276" />
      </g>
      <polygon
         points="107.142 141.07 107.142 143.028 93.222 134.989 93.222 133.036 107.142 141.07"
         style="fill: #714914"
         id="polygon280" />
    </g>
    <g
       id="g292">
      <g
         id="g288">
        <path
           d="M126.9487,110.30851l-2.02225,1.16725-.2287.134h-.00383l-3.19184,1.84662-.0026.00517-.71893.40175-.15262.0859-.73782.42945-10.67759,6.16922h-.00132l-.542.31846-1.24407.70986-.00519.00261-.55465.32335-.11487.07064h-.00492l-.27291.16169h-.00516l-1.694.97789h0l-.298.17178-7.16107,4.13817h-.00491l-.44834.25766h-.00387L91.289,130.89587l-.04916-.02768-.07708-.04293-.41418-.2424-.07218-.043h-.00619l-.49775-.29079-.187-.10089-1.13053-.65685-.053-.03286-.71478-.41936-.26413-.13892-.6214-.364-.08356-.05044-.53032-.30811-.12262-.06312-.67341-.39425L85.586,127.599h-.00516l-.758-.44213-.07685-.03518-.38415-.22248-.15781-.0908-.54689-.31847-.081-.04553-.99675-.58338-.21213-.11383-.78049-.44961-.05563-.038-.29053-.1741-.07452-.03544-.65451-.379h-.00232l-.16947-.09339-.6315-.36631-.038-.02794L79.165,123.898l-.19455-.11643-1.60809-.92692v-1.9581l35.661-18.62692.80972.46746.2287.12883,1.11291.64417.27915.16169,1.01438.58622.18808.10348.49152.29053h.00619l.03156.01526.92587.5381.23258.13892.64544.36631.05173.03777,1.03583.5963.21472.11874.22223.12392.11123.07061.63666.36631.09082.05046.3588.20464.08587.0507.379.21964.18833.11383.55441.3107.23617.14408.244.14125h.00879l.1022.06339.40928.23749.21987.12625.21733.12623h.00879l.12133.0709.26645.16168.11355.058,2.08176-.7528Z"
           style="fill: #976c2f"
           id="path284" />
        <path
           d="M126.94119,108.35581l-2.00853,1.152-.22844.13375h-.01657l-3.18564,1.84427-.00258.01268-.71894.41444-.15261.09081-.74039.42944-10.6763,6.16691-.542.29567-1.24408.72747-.55985.31328-.11486.09106h-.014l-.2639.14383-1.69912.97531h-.0075l-.29053.18187-7.16107,4.13556-.4509.26285h-.00879l-5.56566,3.20606-.04529-.02276-.07837-.053-.41443-.23749-.07812-.04294-.50784-.28561-.17954-.11358-1.13053-.64933-.05564-.03286-.70727-.41445-.27163-.14383-.61648-.35132-.0882-.06311-.52439-.30553-.12625-.0657-.677-.38157-.19714-.134h-.014l-.75776-.42426-.07321-.043-.37769-.23257-.15548-.07581-.5557-.3257-.081-.04553-.99678-.58623-.20955-.12132-.7844-.44962-.05433-.03028-.29827-.17176-.06571-.038-.65036-.38651h-.0101l-.17047-.08589-.62787-.37123-.038-.02794-.50785-.27525-.192-.12133-1.60811-.93728,4.996-2.87233.03027-.02045.16168-.0758.029-.0225.27164-.16429.03155-.02276.16169-.096.03286-.02276,14.182-8.17777.26776-.16168.38263-.20463.25766-.15418,14.85638-8.57462.80353.46746.23981.11876,1.11035.65683.283.15419,1.00428.59863.19455.08589.49514.30061.0264.02794.92718.51535.24265.134.63925.37641.05925.02767,1.032.60123.21109.11383.33606.21472.64289.351.0846.053.35131.20463.09079.053.379.21473.17929.10865.56345.33114.23617.13633.244.13892h.0137l.09729.07088.40306.22973.2287.11875.21212.14151h.01629l.11644.07089.26257.14125.12393.07088.45713.28042.14538.07063.35751.20464.11228.07582.47369.27292.04553.02278Z"
           style="fill: #cf9b55"
           id="path286" />
      </g>
      <polygon
         points="91.289 128.938 91.289 130.896 77.362 122.855 77.362 120.897 91.289 128.938"
         style="fill: #714914"
         id="polygon290" />
    </g>
    <g
       id="g302">
      <g
         id="g298">
        <path
           d="M142.80292,119.3428l-2.021,1.16208-.2287.134h-.00363l-3.18976,1.84687a.03028.03028,0,0,0-.015.0075l-.70108.40435-.1578.08821-.74039.42946-10.68145,6.17206h-.0026l-.5368.30811-1.24539.715-.00519.00518-.55438.31561-.11643.07838h-.00492l-.27423.1617h-.00232l-1.69912.97763h0l-.29544.17177-7.15616,4.12808h-.00492l-.44962.26026v.00517l-5.57446,3.21358-.04813-.02277-.0758-.04553-.41934-.24758-.07453-.038h0l-.49643-.28793-.18316-.10865-1.13312-.65165-.05664-.03545-.71765-.40927-.25507-.14642-.62915-.36632-.0784-.04813-.53163-.30061-.12393-.0683-.66951-.39917-.21086-.11874h-.00258l-.76552-.43955-.06932-.04034-.3816-.22481-.15908-.09106-.54587-.31328-.08072-.043-.99548-.57845-.21473-.11874-.78308-.45221-.05564-.038-.28793-.17178-.07837-.03776-.65063-.37641h-.00364l-.16555-.09857-.63407-.36891-.0468-.02017-.50267-.29311-.19092-.11357-1.60289-.92485v-1.95033l35.65352-18.637.81723.47006.22483.12883,1.11291.64674.27786.15393,1.01438.59371.18677.10116.49281.29053h.00751l.03543.02277.91708.52542.23747.13891.64777.37152.05072.03285,1.03815.596.20849.12392.22739.12885.10995.06312.63666.36632.0921.05562.35364.19713.08978.05561.37641.21964.18445.10606.55206.31846.2424.14643.244.134h.00751l.10245.07063.41159.23.2186.12886.21731.13141h.00388l.125.068.26648.15678.11874.0657,2.07791-.753Z"
           style="fill: #976c2f"
           id="path294" />
        <path
           d="M142.80292,117.3875l-2.021,1.15458-.22119.14125h-.0163l-3.18562,1.83678s0,.01759-.014.01759l-.70108.40694-.1578.0908-.744.42711-10.68045,6.1744-.53679.30061-1.24927.72-.55569.3107-.11643.09107h-.0101l-.269.14642-1.69629.98021h-.01138l-.28922.177-7.15616,4.14076-.44834.25766h-.01138l-5.56931,3.20581-.04294-.02017-.07452-.06055-.42581-.23231-.07453-.04555-.50265-.28044-.18081-.10864-1.12925-.65685-.058-.03027-.70755-.417-.27034-.14384-.61389-.34873-.09211-.06312-.52671-.30837-.12393-.06544-.67572-.37409-.20074-.14151h-.00766l-.76679-.42686-.06674-.04553-.37769-.22739-.16169-.07323-.54715-.33088-.08071-.03545-.99549-.58621-.21213-.13117-.78826-.44471-.05691-.02793-.28794-.17177-.07193-.04786-.6444-.38159H96.3634l-.16946-.09081-.62631-.37149-.04941-.015-.50266-.28819-.19091-.12132-1.60292-.92719,4.99084-2.87494.03284-.02276.15548-.08072.03778-.01526.26777-.17669.03051-.01526.15909-.09339.03518-.02018,14.18064-8.183.27292-.15417.37771-.21472.259-.14642,14.85378-8.58731.81208.4724.23617.12883,1.10672.65191.27787.1516,1.01437.59632.19067.09081.49259.30061.03415.02794.92227.51792.245.13375.64029.37381.0582.02794,1.03067.60121.2085.11384.34121.21472.6377.35106.08978.053.34613.20463.0921.053.38028.20979.17929.11357.56087.32338.23747.13892.244.1441h.0137l.10245.0657.40048.24241.22739.10864.20825.14928h.01266l.12625.06311.259.14643.12133.06313.45868.28793.149.0634.35751.20953.11615.07323.46979.28041.038.01787Z"
           style="fill: #cf9b55"
           id="path296" />
      </g>
      <polygon
         points="107.142 137.972 107.142 139.928 93.222 131.889 93.222 129.938 107.142 137.972"
         style="fill: #714914"
         id="polygon300" />
    </g>
    <g
       id="g312">
      <g
         id="g308">
        <path
           d="M126.9487,107.21133l-2.02225,1.15947-.2287.14151h-.00383l-3.19184,1.83911-.0026.00517-.71893.40408-.15262.09108-.73782.42944-10.67759,6.16948h-.00132l-.542.30811-1.24407.71246-.00519.01268-.55465.31821-.11487.06829h-.00492l-.27291.1617h-.00516l-1.694.98281h0l-.298.17436-7.16107,4.13557h-.00491l-.44834.25508h-.00387L91.289,127.79868l-.04915-.02794-.07709-.05043-.41418-.24007-.07218-.03287h-.00619l-.49775-.30061-.187-.10864-1.13053-.64418-.053-.03775-.71478-.40927-.26413-.14927-.6214-.36631-.08356-.04294-.53032-.30812-.12262-.06311-.6734-.39167-.20566-.12365h-.00516l-.758-.44213-.07685-.04294-.38415-.2199-.15781-.09079-.5469-.31331-.081-.04811-.99676-.57612-.21212-.12107-.78049-.44986-.05563-.04294-.29053-.16661-.07452-.03546-.65451-.37639h-.00232l-.16947-.09856-.6315-.37124-.038-.02794-.50525-.28276-.19455-.10633-1.60809-.92949v-1.95557l35.661-18.6396.80973.47239.22869.12649,1.11291.64675.27915.15911,1.01438.59113.18808.10348.49152.28819h.00619l.03156.0176.92587.52542.23259.14668.64544.37123.05172.03287,1.03583.5963.21472.12365.22223.12909.11123.058.63666.36632.09082.0608.3588.20463.08587.04528.379.21731.18833.11383.55441.31561.23617.14151.244.14411h.00879l.10221.05794.40927.23748.21988.12883.21732.12392h.00879l.12134.07581.26645.149.11354.0657,2.08176-.75282Z"
           style="fill: #976c2f"
           id="path304" />
        <path
           d="M126.94119,105.25323l-2.00853,1.16234-.22844.12883h-.01657L121.502,108.391l-.00259.00777-.71893.41417-.15262.09339-.74039.42194-10.6763,6.177-.542.29828-1.24408.72255-.55985.3107-.11486.0908h-.014l-.26389.14669-1.69912.97271h-.00751l-.29053.18419L97.31427,122.367l-.4509.26257h-.00879l-5.56567,3.20348-.04529-.02509-.07837-.04813-.41443-.23748-.07811-.04811-.50785-.28045-.17954-.11354-1.13052-.64934-.05564-.03287-.70727-.41935-.27164-.14643-.61648-.34614-.0882-.06054-.52438-.3058-.12625-.0657-.677-.38159-.19714-.13892h-.014l-.75775-.42685-.07321-.043-.3777-.22481-.15548-.0758-.5557-.326-.081-.04294-.99677-.58854-.20956-.11641-.78439-.45221-.05433-.03285-.29827-.17179-.06571-.04527-.65036-.3816h-.01011l-.17047-.08329-.62787-.37641-.038-.01786-.50785-.283-.192-.12626-1.6081-.92977,4.996-2.86743.03028-.03027.16168-.07582.029-.02275.27163-.16661.03155-.02019.16169-.09856.03286-.01526,14.182-8.17775.26776-.1568.38263-.217.25766-.14151,14.85638-8.59221.80353.475.23981.12883,1.11038.6494.283.15394,1.00427.59371.19455.08847.49515.30579.0264.02019.92717.51533.24266.14151.63925.37124.05924.02794,1.032.60638.21109.11357.33606.21473.64288.34355.0846.053.35131.20465.09079.05562.379.21472.17929.11123.56346.3283.23616.13659.244.13892h.0137l.09729.07062.40305.24008.2287.10864.21213.14411h.01629l.11643.07061.26257.14669.12394.06312.45713.28534.14537.06313.35752.2098.11228.07063.47369.28043.04553.02794Z"
           style="fill: #cf9b55"
           id="path306" />
      </g>
      <polygon
         points="91.289 125.841 91.289 127.799 77.362 119.76 77.362 117.804 91.289 125.841"
         style="fill: #714914"
         id="polygon310" />
    </g>
    <g
       id="g322">
      <g
         id="g318">
        <path
           d="M142.80292,116.24052l-2.021,1.17215-.2287.134h-.00363l-3.18976,1.8391a.01846.01846,0,0,1-.015.00777l-.70108.40667-.1578.09339-.74039.42451-10.68145,6.1669h-.0026l-.5368.31327-1.24539.71479-.00519.00518-.55438.31587-.11643.07062h-.00492l-.27423.16169h-.00232l-1.69912.98539h0l-.29544.16919-7.15616,4.133-.00492.00259-.44962.25275v.01268l-5.57446,3.20581-.04813-.02277-.0758-.04293-.41934-.24241-.07453-.04812h0l-.49643-.29053-.18316-.10089-1.13312-.65193-.0567-.03777-.71765-.41444-.25507-.14409-.62915-.37125-.0784-.03285-.53163-.3107-.12393-.07089-.66952-.38649-.21085-.12366h-.00259l-.76551-.44729-.06932-.03777-.3816-.21989-.15908-.09107-.54587-.31329L99.434,132.379l-.99549-.581-.21472-.11874-.78309-.44472-.05563-.03776-.28793-.17177-.07837-.043-.65064-.37149h-.00364l-.16555-.096-.63407-.3663-.0468-.03287-.50267-.283-.19091-.11124-1.6029-.9295v-1.96045l35.65353-18.6295.81723.47239.22483.12391,1.11291.65166.27786.15419,1.01438.586.18676.10865.49283.29053h.00751l.03543.01525.91708.53318.23748.14125.64776.36892.05072.02793,1.03815.60613.2085.11383.22738.12883.11.07063.63666.35364.0921.06571.35364.19712.08978.05562.3764.21472.18445.11358.55206.31847.2424.14151.244.13634h.0075l.10245.06828.41159.23232.2186.12391.21732.12885h.00387l.125.0758.26648.15651.11875.06313,2.07788-.75774Z"
           style="fill: #976c2f"
           id="path314" />
        <path
           d="M142.80292,114.29531l-2.021,1.1494-.22119.13892h-.0163l-3.18562,1.83909a.01289.01289,0,0,1-.013.01274l-.001-.00006-.70108.41445-.1578.0908-.744.4297-10.68045,6.16431-.53679.30553-1.24927.72-.55569.30578-.11643.09339h-.0101l-.269.14927-1.69629.97245h-.01138l-.28922.17952-7.15616,4.14075-.44834.26259h-.01138l-5.56931,3.211-.04294-.03287-.07452-.04787-.42581-.23489-.07453-.0507-.50265-.28043-.18081-.111-1.12925-.65193-.058-.02535-.70755-.42168-.27034-.1441-.61389-.35623-.09211-.06313-.52671-.3032-.12393-.06313-.67572-.38158-.20074-.13891h-.00766l-.76679-.41936-.06674-.04785-.37769-.22742-.16169-.0758-.54715-.33115-.08071-.04034-.99549-.58623-.21213-.11875-.78826-.45712-.05691-.03024-.28794-.16687-.07193-.04294-.6444-.38132H96.3634l-.16946-.09106-.62631-.36632-.04941-.02768-.50266-.28043-.19091-.12133-1.60292-.93234,4.99084-2.87235.03284-.02018.15548-.07839.03778-.02768.26777-.16168.03051-.02794.15909-.08589.03518-.02768,14.18064-8.17287.27292-.15677.37771-.21472.259-.14642,14.85378-8.58213.81208.46746.23617.12366,1.10672.65685.27787.15677,1.01437.59112.19067.09081.49259.30088.03415.0225.92227.51559.245.13374.64029.379.0582.02277,1.03067.6038.2085.11875.34121.20954.6377.34873.08978.06079.34613.19946.0921.05044.38028.21732.17929.10606.56087.33115.23747.13892.244.13891h.0137l.10245.068.40048.23748.22739.12133.20825.13891h.01266l.12625.07089.259.14383.12133.06339.45868.28535.149.05822.35751.22221.11615.0657.46979.27785.038.02017Z"
           style="fill: #cf9b55"
           id="path316" />
      </g>
      <polygon
         points="107.142 134.875 107.142 136.828 93.222 128.792 93.222 126.831 107.142 134.875"
         style="fill: #714914"
         id="polygon320" />
    </g>
    <g
       id="g332">
      <g
         id="g328">
        <path
           d="M126.9487,104.109l-2.02225,1.167-.2287.134h-.00383l-3.19184,1.84426-.0026.00493-.71893.40434-.15262.09081-.73782.432-10.67759,6.162h-.00132l-.542.3182-1.24407.70729-.00519.01268-.55465.31587-.11487.07062h-.00492l-.27291.1617h-.00516l-1.694.9828h0l-.298.17179L97.31436,121.215l-.00491.01009-.44834.25249-.00387.00776L91.289,124.69378l-.04915-.03027-.07709-.038-.41418-.2424-.07218-.043h-.00619l-.49775-.29052-.187-.10373-1.13053-.64934-.053-.03776-.71478-.40668-.26413-.1591-.6214-.36141-.08356-.04036-.53032-.31329-.12262-.06314-.6734-.39425-.20566-.11875h-.00516l-.758-.44444-.07685-.038-.38415-.22222-.15781-.09106-.5469-.31589-.081-.04294-.99676-.581-.21212-.11875-.78049-.447-.05563-.038-.29053-.16919-.07452-.04034-.65451-.38159h-.00232l-.16947-.096-.6315-.36891-.038-.02018-.50525-.28794-.19455-.11383-1.60809-.9295v-1.958l35.661-18.62926.80973.4698.22869.134,1.11291.639.27915.16169,1.01438.58622.18808.10115.49152.29544h.00619l.03156.02277.92587.52542.23259.14151.64544.36632.05172.03287,1.03583.60122.21472.11875.22223.12649.11123.07064.63666.36113.09082.0533.3588.21213.08587.04294.379.21989.18833.111.55441.3133.23617.14409.244.14151h.00879l.10221.06311.40927.23233.21988.12883.21732.12883h.00879l.12134.07089.26645.15651.11354.06312,2.08176-.7528Z"
           style="fill: #976c2f"
           id="path324" />
        <path
           d="M126.94119,102.161l-2.00853,1.152-.22844.13919h-.01657l-3.18564,1.83909-.00258.01009-.71894.40925-.15261.09107-.74039.42944-10.6763,6.1744-.542.29544-1.24408.72021-.55985.31328-.11486.0908h-.014l-.2639.14669-1.69912.97763h-.0075l-.29053.17178L97.31427,119.267l-.4509.26024h-.00879l-5.56567,3.211-.04529-.02768-.07837-.05561-.41443-.23-.07811-.053-.50779-.28045-.17954-.11357-1.13052-.64416-.05564-.038-.70727-.41418-.27164-.14409-.61648-.34356-.0882-.07087-.52438-.30812-.12625-.05821-.677-.38132-.19714-.13893h-.014l-.75775-.42711-.07321-.04293-.3777-.22483-.15547-.0807-.55571-.32337-.081-.04812-.99677-.581-.20956-.12391-.78439-.45221-.05432-.02509-.29828-.16685-.06571-.04787-.65036-.38417h-.0101l-.17048-.08589-.62786-.36891-.038-.02768-.50785-.28536-.192-.11874-1.6081-.92977,4.996-2.87751.03028-.02019.16168-.08356.029-.02018.27163-.16659.03157-.02019.16168-.09106L83.077,111.4l14.18194-8.19045.26776-.149.38263-.21989.25766-.14151,14.85639-8.587.80352.4724.23981.12132,1.11035.65425.283.15419,1.00427.59111.19455.09339.49515.30088.0264.0251.92717.5179.24266.13894.63925.37149.05924.02768,1.032.60639.21109.11123.33606.21215.64288.34871.0846.053.35132.20465.09079.05562.379.21472.17929.10866.56346.32569.23617.134.244.14642h.01371l.09729.0709.403.22972.2287.11874.21213.13893h.01628l.11644.07581.26257.13917.12393.07062.45713.27525.14538.07581.35752.20721.11227.06571.47368.2856.04554.02018Z"
           style="fill: #cf9b55"
           id="path326" />
      </g>
      <polygon
         points="91.289 122.741 91.289 124.694 77.362 116.655 77.362 114.697 91.289 122.741"
         style="fill: #714914"
         id="polygon330" />
    </g>
    <g
       id="g342">
      <g
         id="g338">
        <path
           d="M142.80292,113.14306l-2.021,1.16725-.2287.134h-.00363l-3.18976,1.83911s-.00491,0-.015.01009l-.70108.40925-.1578.08589-.74039.42452-10.68145,6.16949h-.0026l-.5368.31562-1.24539.70986h-.00519l-.55438.33115-.11643.068h-.00492l-.27423.15677h-.00232l-1.69912.98281h0l-.29544.1741-7.15616,4.12807c-.00492,0-.00492,0-.00492.01268l-.44962.25275h0l-5.57446,3.21357-.04813-.02534-.0758-.04293-.41934-.24241-.07453-.038h0l-.49643-.29544-.18316-.10116-1.13312-.65685-.05664-.038-.71765-.40926-.25507-.14384-.62915-.37149-.0784-.043-.53163-.30579-.12393-.07063-.66951-.38651-.21086-.12623h-.00258l-.76552-.43462-.06932-.04292-.3816-.22481-.15908-.08589-.54587-.31847-.08072-.04786-.99548-.57613-.21473-.12366-.78308-.44729-.05564-.03025-.28793-.17437-.07837-.03546-.65063-.37639h-.00364l-.16555-.1035-.63407-.37149-.0468-.02018-.50267-.28536-.19092-.11124-1.60289-.93208v-1.95061l35.65352-18.637.81723.47007.22483.13375,1.11291.63923.27786.16169,1.01438.58882.18677.09831.49281.29828h.00751l.03543.02018.91708.5205.23747.14642.64777.36115.05072.03544,1.03815.59889.20849.12883.22739.12366.10995.06313.63666.36631.0921.05562.35364.20722.08978.04554.37641.21962.18445.11384.55206.31587.2424.13375.244.14668h.00751l.10245.06545.41159.24006.2186.11875.21731.12883h.00388l.125.0758.26648.149.11874.0657,2.07788-.75282Z"
           style="fill: #976c2f"
           id="path334" />
        <path
           d="M142.80292,111.19039l-2.021,1.15692-.22119.134h-.0163l-3.18562,1.8391s0,.01526-.014.01526l-.70108.40927-.1578.0908-.744.432-10.68045,6.16948-.53679.30061-1.24927.72-.55569.3107-.11643.09857h-.0101l-.269.13893-1.69629.97271h-.01138l-.28922.177-7.15616,4.14308-.44834.268h-.01138L107.14209,131.77l-.04294-.02508-.07451-.053-.42582-.23748-.07453-.043-.50265-.283-.18081-.11383-1.12924-.64674-.058-.03259-.70755-.41962-.27035-.14384-.61389-.34873-.0921-.06828-.52671-.298-.12394-.07063-.67572-.38158-.20073-.13633h-.00766l-.7668-.42452-.06674-.043-.37769-.2248-.16168-.081-.54715-.32829-.08072-.043-.99549-.581-.21212-.12132-.78827-.45221-.05691-.03285-.28794-.17179-.07193-.04035-.6444-.379h-.01371l-.16946-.09338-.62631-.37149-.04941-.02536-.50266-.27267-.19091-.1265-1.60291-.9295,4.99083-2.87519.03284-.02276.15549-.07554.03778-.03287.26776-.15677.03052-.02534.15908-.09338.03518-.02019,14.18064-8.17285.27292-.1617.37771-.21732.259-.13891,14.85379-8.58962.81208.475.23617.12391,1.10672.64908.27787.15676,1.01437.596.19067.09365.49259.30061.03415.01528.92227.52024.245.13659.64029.37641.0582.02768,1.03067.60637.2085.10865.34121.21472.6377.34846.08978.06081.34613.19713.0921.05536.38028.21472.17929.10632.56087.32829.23747.134.244.15158h.0137l.10245.06572.40048.22972.22739.11876.20825.1389h.01266l.12625.07582.259.14151.12133.06312.45868.28562.149.0683.35751.21212.11615.06313.46979.28561.038.0225Z"
           style="fill: #cf9b55"
           id="path336" />
      </g>
      <polygon
         points="107.142 131.778 107.142 133.728 93.222 125.689 93.222 123.739 107.142 131.778"
         style="fill: #714914"
         id="polygon340" />
    </g>
    <g
       id="g352">
      <g
         id="g348">
        <path
           d="M126.9487,101.009l-2.02225,1.16986-.2287.13374h-.00383l-3.19184,1.84428-.0026.00518-.71893.40408-.15262.09106-.73782.42427-10.67759,6.162h-.00132l-.542.32338-1.24407.71478-.00519.00517-.55465.31821-.11487.07088h-.00492l-.27291.16169h-.00516l-1.694.97763h0l-.298.17179-7.16107,4.13066-.00491.00491-.44834.25792-.00387.00492-5.56827,3.211-.04916-.02508-.07708-.05072-.41418-.23747-.07218-.043h-.00619l-.49775-.28794-.187-.10115-1.13053-.65916-.053-.03545-.71478-.417-.26413-.14125-.6214-.3614-.08356-.05562-.53032-.30061-.12262-.06314-.67341-.394-.20565-.11874h-.00516l-.758-.44472-.07685-.038-.38415-.22481-.15781-.09079-.5469-.31588-.081-.04554-.99676-.57586-.21212-.11874-.78049-.45221-.05563-.03285-.29053-.17178-.07452-.04062-.65451-.379h-.00232l-.16947-.096-.6315-.36373-.038-.02768-.50525-.28819-.19455-.111L77.3624,113.555v-1.95034l35.661-18.6396.80972.47265.2287.12883,1.11291.64675.27915.16169,1.01438.57844.18808.1035.49152.2957h.00619l.03156.02275.92587.53292.23259.134.64543.36891.05173.03285,1.03583.60123.21472.11873.22223.13144.11123.06569.63666.35857.09082.05821.3588.20464.08587.04786.379.21991.18833.1138.55441.313.23617.14409.244.13893h.00879l.1022.06569.40928.23749.21987.12392.21733.12884h.00879l.12134.07061.26644.1617.11355.05821,2.08176-.75282Z"
           style="fill: #976c2f"
           id="path344" />
        <path
           d="M126.94119,99.05373l-2.00853,1.15432-.22844.14151h-.01657l-3.18564,1.83678-.00258.02019-.71894.40667-.15261.08589-.74039.43721-10.6763,6.16689-.542.30062-1.24408.72-.55985.30811-.11486.09624h-.014l-.2639.14125-1.69912.9828h-.0075l-.29053.177-7.16107,4.13817-.4509.25508h-.00879l-5.56566,3.211-.04529-.02017-.07837-.05562-.41443-.23489-.07812-.04787-.50784-.28043-.17954-.11383-1.13053-.64416-.05564-.038-.70727-.41417-.27163-.13893-.61648-.35624-.0882-.06311-.52439-.30838L86.465,116.852l-.677-.38132-.19714-.134h-.014l-.75776-.42427-.07321-.04061-.37769-.22741-.15548-.08072-.5557-.32855-.081-.04294-.99678-.581-.20955-.12365-.7844-.45221-.05433-.03026-.29827-.17437-.06571-.04294-.65036-.37409h-.0101l-.17047-.09339-.62787-.37151-.038-.02768-.50785-.27293-.192-.12883-1.60811-.92949,4.996-2.87261.03027-.02276.16168-.07582.029-.02018.27164-.16659.03155-.02045.16169-.09829.03286-.02044,14.182-8.17778.26776-.1591.38263-.20722.25766-.15419,14.85638-8.57953.80353.47266.23981.12365,1.11035.64933.283.15653,1.00428.59629.19455.0859.49514.3081.0264.02277.92718.51533.24265.12132.63925.38651.05925.02794,1.032.6038.21109.11357.33606.21239.64289.34588.0846.06338.35131.202.09079.05044.379.21733.17929.10605.56345.32338.23617.14151.244.14151h.0137l.09729.07062.40306.23258.2287.11874.21212.13892h.01629l.11644.07061.26257.14411.12393.07062.45713.28044.14538.07087.35751.202.11228.07582.47369.27784.04553.01786Z"
           style="fill: #cf9b55"
           id="path346" />
      </g>
      <polygon
         points="91.289 119.641 91.289 121.596 77.362 113.555 77.362 111.605 91.289 119.641"
         style="fill: #714914"
         id="polygon350" />
    </g>
    <g
       id="g362">
      <g
         id="g358">
        <path
           d="M142.80292,110.04072l-2.021,1.16726-.2287.13892h-.00363l-3.18976,1.8391-.015.01034-.70108.40151-.1578.08848-.74039.42945-10.68145,6.16688h-.0026l-.5368.31587-1.24539.71247-.00519.00492-.55438.32338-.11643.06569h-.00492l-.27423.1617h-.00232l-1.69912.988h0l-.29544.1741-7.15616,4.12317c-.00492,0-.00492,0-.00492.00492l-.44962.25274v.01268l-5.57446,3.20581-.04813-.02768-.0758-.04295-.41934-.245-.07453-.03053h0l-.49643-.29544-.18316-.10864-1.13312-.64934-.05664-.03776-.71765-.40926-.25507-.1516-.62915-.36631-.0784-.04294-.53163-.3032-.12393-.07088-.66951-.3865-.21086-.12133h-.00258l-.76552-.44444-.06932-.038-.3816-.22741-.15908-.0908-.54587-.3107-.08072-.04812-.99548-.57586-.21473-.12392-.78308-.44472-.05564-.04033-.28793-.16919-.07837-.04062-.65063-.37641h-.00364l-.16555-.096-.63407-.36889-.0468-.0225-.50267-.29312-.19092-.106-1.60289-.92977v-1.95784l35.65355-18.62954.81723.4698.22483.12883,1.11291.64417.27786.15677,1.01438.59112.18677.10115.49281.29311h.00751l.03543.02019.91708.53033.23747.13659.64777.36373.05072.04036,1.03815.59369.20849.12133.22739.134.11.06311.63664.36116.0921.06079.35364.202.08979.05044.3764.2199.18445.10606.55206.3182.2424.14409.244.14151h.00751l.10245.06312.41159.23232.2186.12133.21731.13659h.00388l.125.068.26648.15911.11874.06339,2.07788-.75307Z"
           style="fill: #976c2f"
           id="path354" />
        <path
           d="M142.80292,108.093l-2.021,1.152-.22119.1441h-.0163l-3.18562,1.83418s0,.0101-.014.0101l-.70108.41417-.1578.09107-.744.42945-10.68045,6.1695-.53679.29542-1.24927.72772-.55569.3107-.11643.09081h-.0101l-.269.14669-1.69629.97271h-.01138l-.28922.18187-7.15616,4.13557-.44834.26026h-.01138l-5.56931,3.211-.04294-.02277-.07452-.06053-.42581-.23-.07453-.04813-.50265-.28017-.18081-.11123-1.12925-.64675-.058-.038-.70755-.41418-.27034-.149-.61389-.34615-.09211-.06312-.52671-.30837-.12393-.06312-.67572-.38158-.20074-.14125h-.00766l-.76679-.41961-.06674-.04786-.37769-.22741-.16169-.07838-.54715-.32338-.08071-.04294-.99549-.57846-.21213-.12624-.78826-.44987-.05691-.03519-.28794-.16426-.07193-.04813-.6444-.38132H96.3634l-.16946-.09105-.62631-.36632-.04941-.02276-.50266-.28043-.19091-.12626-1.60292-.93234,4.99084-2.87235.03284-.02019.15548-.08329.03778-.01526.26777-.16919.03051-.02277.15909-.09106.03518-.02277,14.18064-8.18034.27292-.15654.37771-.20979.259-.149,14.85378-8.587.81208.4724.23617.12883,1.10672.65167.27787.15418,1.01437.59632.19067.08847.49259.298.03415.0277.92227.51791.245.12885.64029.38157.0582.02768,1.03067.60639.2085.10606.34121.21732.6377.35131.08978.05045.34613.20463.0921.05562.38028.20954.17929.11641.56087.32338.23747.13375.244.14668h.0137l.10245.06313.40048.23749.22739.11357.20825.14409h.01266l.12625.07063.259.14669.12133.068.45868.27551.149.07321.35751.20464.11615.0758.46979.27526.038.02018Z"
           style="fill: #cf9b55"
           id="path356" />
      </g>
      <polygon
         points="107.142 128.673 107.142 130.628 93.222 122.592 93.222 120.634 107.142 128.673"
         style="fill: #714914"
         id="polygon360" />
    </g>
    <g
       id="g372">
      <g
         id="g368">
        <path
           d="M126.9487,97.91157l-2.02225,1.16725-.2287.12884h-.00383l-3.19184,1.84427-.0026.0075-.71893.40176-.15262.09858-.73782.41935-10.67759,6.17208h-.00132l-.542.3081-1.24407.715-.00519.00492-.55465.32855-.11487.068h-.00492l-.27291.15677h-.00516l-1.694.98512h0l-.298.172-7.16107,4.1304h-.00491l-.44834.25767-.00387.00518-5.56827,3.211-.04916-.02276-.07708-.04787-.41418-.24007-.07218-.03543h-.00619l-.49775-.298-.187-.10374-1.13053-.64674-.053-.043-.71478-.40925-.26413-.149-.6214-.35882-.08356-.05045-.53032-.3107-.12262-.0657-.67341-.38651L85.586,115.202h-.00516l-.758-.44213-.07685-.04293-.38415-.21964-.15781-.09106-.54689-.3107-.081-.04786-.99675-.57614-.21213-.12391-.78049-.45221-.05563-.03777-.29053-.16685-.07452-.03777-.65451-.37382h-.00232l-.16947-.09857-.6315-.3715-.038-.02767-.50525-.283-.19455-.10865L77.3624,110.46v-1.95259l35.661-18.63962.80972.4724.2287.12365,1.11291.65191.27915.15419,1.01438.58855.18808.10606.49152.29052h.00619l.03156.02019.92587.528.23259.14151.64543.3715.05173.03028,1.03583.59863.21472.12133.22223.13141.11123.06313.63666.3614.09082.058.3588.19973.08587.053.379.21472.18833.11874.55441.31328.23617.13893.244.14409h.00879l.1022.06054.40928.2349.21987.12624.21733.12651h.00879l.12134.07582.26644.15651.11355.06079,2.08176-.75307Z"
           style="fill: #976c2f"
           id="path364" />
        <path
           d="M126.94119,95.95373l-2.00853,1.16208-.22844.134h-.01657L121.502,99.0915l-.00259.01009-.71893.41444-.15262.0908-.74039.42453-10.6763,6.1744-.542.30061-1.24408.72255-.55985.3107-.11486.08589h-.014l-.26389.1516-1.69912.97271h-.00751l-.29053.177-7.16107,4.1405-.45089.26284h-.00879l-5.56567,3.211-.04529-.02767-.07837-.05072-.41443-.245-.07811-.043-.50785-.28042-.17954-.11617L88.8548,115.134l-.05564-.03545-.70727-.41185-.27164-.1516-.61648-.34356-.0882-.06569-.52438-.30553-.12625-.06828-.677-.379-.19714-.13892h-.014l-.75775-.41935-.07321-.04812-.3777-.2274-.15548-.0758-.5557-.3257-.081-.043-.99677-.58881-.20956-.11618-.78439-.45218-.05433-.03287-.29827-.17178-.06571-.04294-.65036-.38158h-.01011l-.17047-.08589-.62787-.3764-.038-.0176-.50785-.27785-.192-.12885-1.6081-.93234,4.996-2.87234.03028-.02277.16168-.07579.029-.02278.27163-.16169.03155-.02793.16169-.096.03286-.015,14.182-8.18036.26776-.15418.38263-.21732.25766-.149,14.85638-8.58471.80353.47265.23981.13117,1.11035.64933.283.15677,1.00427.59113.19455.08589.49515.30553.0264.02794.92717.51532.24266.134.63925.37383.05924.02534,1.032.60872.21109.11125.33606.21731.64288.34845.0846.04813.35131.20955.09079.053.379.20981.17929.11357.56346.32855.23616.134.244.14644h.0137l.09729.06828.403.23231.2287.11875.21213.13891h.01629l.11643.0709.26257.14382.12394.0657.45713.283.14537.07063.35752.20979.11228.06572.47369.28042.04553.02018Z"
           style="fill: #cf9b55"
           id="path366" />
      </g>
      <polygon
         points="91.289 116.541 91.289 118.494 77.362 110.46 77.362 108.507 91.289 116.541"
         style="fill: #714914"
         id="polygon370" />
    </g>
    <g
       id="g382">
      <g
         id="g378">
        <path
           d="M142.80292,106.94851l-2.021,1.16208-.2287.134h-.00363l-3.18976,1.84427-.015.01009-.70108.40409-.1578.08589-.74039.42453-10.68145,6.16948h-.0026l-.5368.3107-1.24539.72-.00519.00517-.55438.31821-.11643.0683h-.00492l-.27423.16169h-.00232l-1.69912.98513h0l-.29544.16684-7.15616,4.13066c-.00492,0-.00492,0-.00492.0101l-.44962.25249v.01268l-5.57446,3.20346-.04813-.02792-.0758-.04036-.41934-.2424-.07453-.04555h0l-.49643-.29053-.18316-.09854-1.13312-.65686-.05664-.03285-.71765-.41444-.25507-.14385-.62915-.36632-.0784-.04293-.53163-.3133-.12393-.06569-.66951-.39167-.21086-.11617h-.00258l-.76552-.44212-.06932-.04294-.3816-.2199-.15908-.0908-.54587-.31847-.08072-.04528-.99548-.57869-.21473-.12626-.78308-.44471-.05564-.03285-.28793-.1718-.07837-.04293-.65063-.37124h-.00364l-.16555-.10115-.63407-.36632-.0468-.02535-.50267-.28042-.19092-.11357-1.60289-.93727v-1.95034l35.65352-18.63443.81723.4672.22483.13144,1.11291.64415.27786.16169,1.01438.58364.18677.11123.49281.29052h.00751l.03543.015.91708.53317.23747.13893.64777.36891.05072.02768,1.03815.60381.20849.11642.22739.13116.10995.07087.63666.35884.0921.058.35364.19972.08978.053.37641.21731.18445.11357.55206.31587.2424.13892.244.14643h.00751l.10245.05819.41159.23749.2186.12366.21731.134h.00388l.125.07062.26648.15677.11874.06312,2.07788-.76057Z"
           style="fill: #976c2f"
           id="path374" />
        <path
           d="M142.80292,104.99064l-2.021,1.15459-.22119.14151h-.0163l-3.18562,1.83908s0,.00492-.014.00492l-.70108.41961-.1578.0859-.744.43177-10.68045,6.17207-.53679.30061-1.24927.72-.55569.30838-.11643.09831h-.0101l-.269.14151-1.69629.9753h-.01138l-.28922.17927-7.15616,4.13817-.44834.25768h-.01138l-5.56931,3.21124-.04294-.02535-.07452-.05044-.42581-.24006-.07453-.04294-.50265-.28044-.18081-.11874-1.12925-.64417-.058-.03286-.70755-.41936-.27034-.13918-.61389-.356-.09211-.0657-.52671-.30062-.12393-.07089-.67572-.37382-.20074-.14151h-.00766l-.76679-.42452-.06674-.043-.37769-.22481-.16169-.0807-.54715-.32856-.08071-.043-.99549-.581-.21213-.11873-.78826-.45221-.05691-.03544-.28794-.16919-.07193-.04294-.6444-.37383H96.3634l-.16946-.09106-.62631-.37383-.04941-.02534-.50266-.28043-.19091-.12366-1.60292-.92976,4.99084-2.87259.03284-.02018.15548-.08071.03778-.02278.26777-.16687.03051-.02017.15909-.09081.03518-.02794,14.18064-8.17518.27292-.15937.37771-.20954.259-.15418,14.85378-8.57437.81208.46721.23617.12392,1.10672.64908.27787.15676,1.01437.59112.19067.096.49259.3032.03415.02536.92227.51014.245.14151.64029.37408.0582.02251,1.03067.609.2085.10864.34121.2199.6377.34355.08978.05537.34613.2023.0921.053.38028.21731.17929.111.56087.32338.23747.14151.244.13659h.0137l.10245.07063.40048.23748.22739.11357.20825.14669h.01266l.12625.068.259.14411.12133.0657.45868.28559.149.06314.35751.21212.11615.0683.46979.27784.038.02278Z"
           style="fill: #cf9b55"
           id="path376" />
      </g>
      <polygon
         points="107.142 125.578 107.142 127.528 93.222 119.487 93.222 117.537 107.142 125.578"
         style="fill: #714914"
         id="polygon380" />
    </g>
    <g
       id="g392">
      <g
         id="g388">
        <path
           d="M126.9487,94.80924l-2.02225,1.16725-.2287.13634h-.00383l-3.19184,1.84194-.0026.00492-.71893.40924-.15262.09108-.73782.42167-10.67759,6.1669h-.00132l-.542.31327-1.24407.72023h-.00522l-.55466.32829-.11486.06571h-.00492l-.27292.15911h-.00515l-1.694.9828h0l-.298.16919-7.16107,4.12807-.00491.01268-.44834.25274-.00387.00492-5.56827,3.20606-.04916-.02018-.07708-.04062-.4142-.24757-.07216-.043h-.00619l-.49775-.28276-.187-.10865-1.13052-.65684-.053-.03028-.71478-.41444-.26413-.1516-.6214-.36114-.08356-.04294-.53033-.311-.12261-.06314-.67341-.394-.20565-.11874h-.00516l-.758-.4447-.07685-.04036-.38415-.2199-.1578-.09855-.54691-.30321-.081-.05045-.99675-.57846-.21213-.12391-.78049-.447-.05563-.03285-.29053-.17179-.07452-.038-.65451-.38132h-.00232l-.16947-.09857-.6315-.36632-.038-.02275-.50525-.28794-.19455-.11123-1.60809-.93235v-1.95034l35.661-18.637.80972.47755.2287.12133,1.11291.64674.27915.1617,1.01438.586.18808.10632.49152.28535h.00619l.03156.02277.92587.53551.23257.134.64545.37382.05172.02535,1.03583.60123.21472.11357.22223.13917.11123.058.63666.36631.09082.05562.3588.20981.08587.04293.379.22481.18833.10866.55441.31561.23617.14151.244.14669h.00879l.10221.058.40928.23.21987.12886.21732.134h.00879l.12134.07063.26645.15161.11354.06569,2.08176-.75542Z"
           style="fill: #976c2f"
           id="path384" />
        <path
           d="M126.94119,92.8615l-2.00853,1.152-.23491.134h-.0101L121.502,95.99928l-.00259.00257-.71373.40928-.163.08847-.73523.43435-3.63162,2.102-7.04468,4.07246-.542.2957-1.24408.73262-.55985.298-.10736.09107h-.01242l-.27423.14151-1.69784.98513h-.0101l-.28794.16944-1.34137.77558-5.82461,3.3675-.44471.26283h-.0075l-5.56827,3.20583-.04528-.02018-.081-.06055-.41419-.23231-.07837-.043-.50784-.29077-.177-.106-1.13053-.64676-.05564-.03027-.70726-.42194-.27655-.14384-.61158-.34872-.08819-.06571-.528-.29544-.12262-.06338-.6734-.38651-.20566-.13634h-.01657l-.75024-.432-.07321-.043-.38416-.23-.15522-.07321-.54946-.31821-.081-.04811-.99912-.58364-.20721-.13633-.78308-.432-.05564-.038-.297-.1767-.067-.04293-.65036-.3764H80.509l-.16687-.081-.64053-.38133-.029-.02019-.50525-.28819-.202-.12133-1.6055-.92951,4.99836-2.86743.03283-.02019.15653-.08847.02923-.02536.27655-.16168.03287-.02019.15545-.09338.03286-.02019,6.13016-3.53462L97.25494,93.91l.27163-.149.38779-.2199.2525-.14642L102.319,90.997l10.69931-6.18967.81464.48015.23361.11615,1.11035.66176.28561.15161,1.00039.59629.20076.09106.484.30553.03028.02276.92718.50524.23876.14409.65683.37152.05433.02768,1.01542.60122.22374.11382.32831.22223.65063.34614.08847.06053.34226.19455.09857.053.37381.20981.17566.11873.5632.3283.24655.12391.23749.15651h.01139l.097.0683.41185.22738.21988.11126.21991.14382h.01111l.11874.07581.25534.14151.13244.07088.44858.26776.15521.0807.3526.21474.10477.06314.475.27034.04682.038Z"
           style="fill: #cf9b55"
           id="path386" />
      </g>
      <polygon
         points="91.289 113.444 91.289 115.392 77.362 107.355 77.362 105.405 91.289 113.444"
         style="fill: #714914"
         id="polygon390" />
    </g>
    <g
       id="g402">
      <g
         id="g398">
        <path
           d="M142.80292,103.84356l-2.021,1.16727-.2287.13374h-.00363l-3.18976,1.83935a.042.042,0,0,1-.015.01268l-.70108.40151-.1578.09364-.74039.422-10.68145,6.16922h-.0026l-.5368.3107-1.24539.71762-.00519.00493-.55438.32337-.11643.0657h-.00492l-.27423.16168h-.00232l-1.69912.98024h0l-.29544.17436-7.15616,4.13583h-.00492l-.44962.25768h0l-5.57446,3.2159-.04813-.02277-.0758-.04787-.41934-.24006-.07453-.04036h0l-.49643-.29569-.18316-.1009-1.13312-.64933-.05664-.04553-.71765-.40927-.25507-.149-.62915-.36632-.0784-.03546-.53163-.31329-.12393-.068-.66951-.38909-.21086-.12391h-.00258l-.76552-.43694-.06932-.04813-.3816-.21963-.15908-.08614-.54587-.31561-.08072-.04294-.99548-.58364-.21473-.12132-.78308-.447-.05564-.038-.28793-.1666-.07837-.043-.65063-.37149h-.00364l-.16555-.10115-.63407-.37125-.0468-.02276-.50267-.283-.19092-.11358-1.60289-.93466V114.4444l35.65352-18.63961.81723.46747.22483.13116,1.11291.64184.27786.16169,1.01438.59113.18677.09855.49281.29545h.00751l.03543.01525.91708.53318.23747.14125.64777.36657.05072.03028,1.03815.6038.20849.12107.22739.12649.10995.068.63666.36139.0921.053.35364.20464.08978.04813.37641.22221.18445.10606.55206.32337.2424.13891.244.14151h.00751l.10245.06313.41159.23257.2186.12883.21731.12625h.00388l.125.07061.26648.15677.11874.06314,2.07788-.75023Z"
           style="fill: #976c2f"
           id="path394" />
        <path
           d="M142.79791,101.8984l-2.01605,1.15457-.2287.12625h-.01138l-3.182,1.84427s0,.01009-.015.01009l-.69977.41935-.163.08588-.74014.42944-3.74546,2.16249-6.935,4.00183-.5368.3107-1.24539.715-.55957.31846-.11.09082h-.014l-.274.14151-1.69913.97763H120.615l-.28794.177-1.44146.8387-5.71469,3.302-.44834.25508h-.01139l-5.57446,3.21358-.043-.02019-.07581-.05562-.41935-.24757-.07451-.04293-.50781-.273-.17566-.12365-1.13414-.63926-.053-.038-.70755-.41417-.26388-.14151-.62915-.34874-.08847-.06569-.528-.3107-.11746-.07064-.66953-.379-.202-.13143h-.0114l-.76807-.41935-.06674-.04294-.37769-.23749-.16169-.07581-.55335-.33087-.07452-.038-1.00039-.586-.2098-.11874-.78309-.45221-.05563-.03286-.29568-.16687-.068-.04293-.64441-.38651h-.0137l-.16427-.08589-.63794-.37642-.03779-.02017-.50784-.27551-.19715-.11874-1.59284-.9347,4.98438-2.87233.03155-.03287.16816-.0758.024-.02019.27268-.16168.03052-.02277.15652-.10115.03156-.02278,6.03677-3.46605,8.15628-4.6967.26285-.1718.39038-.20954.25015-.14151,4.06238-2.342,10.78753-6.245.81594.47988.23.11875,1.11292.64934.28274.15159,1.003.60639.19971.08589.49775.29544.03156.02794.91193.51014.25506.1366.63925.38649.05434.02277,1.03455.59863.20462.11357.33734.2199.64416.34614.09235.04813.341.21472.096.053.37641.20955.18316.10864.55207.33348.2424.12883.24136.14668h.014l.09857.06313.40668.24241.23361.11124.20462.14151h.014l.11746.07062.26648.149.12.07089.46359.27292.14282.07063.351.21733.12393.06313.46359.28042.03907.02018Z"
           style="fill: #cf9b55"
           id="path396" />
      </g>
      <polygon
         points="107.142 122.478 107.142 124.431 93.222 116.387 93.222 114.444 107.142 122.478"
         style="fill: #714914"
         id="polygon400" />
    </g>
    <g
       style="opacity: 0.4000000059604645"
       id="g406">
      <polygon
         points="77.265 106.373 77.265 127.465 107.142 144.71 107.142 123.62 77.265 106.373"
         style="fill: #fff"
         id="polygon404" />
    </g>
    <g
       style="opacity: 0.6000000238418579"
       id="g410">
      <polygon
         points="107.142 144.71 142.808 124.113 142.808 103.022 107.142 123.62 107.142 144.71"
         style="fill: #fff"
         id="polygon408" />
    </g>
    <g
       id="g424">
      <polygon
         points="95.428 127.35 102.437 131.4 102.437 125.372 95.428 121.327 95.428 127.35"
         style="fill: #fff"
         id="polygon412" />
      <polygon
         points="96.091 123.131 101.771 126.405 101.771 125.739 96.091 122.459 96.091 123.131"
         style="fill: #3f3f3f"
         id="polygon414" />
      <polygon
         points="96.091 124.346 101.771 127.621 101.771 127.325 96.091 124.051 96.091 124.346"
         style="fill: #aeaba9"
         id="polygon416" />
      <polygon
         points="96.091 125.137 101.771 128.411 101.771 128.116 96.091 124.842 96.091 125.137"
         style="fill: #aeaba9"
         id="polygon418" />
      <polygon
         points="96.091 125.986 101.771 129.265 101.771 128.97 96.091 125.688 96.091 125.986"
         style="fill: #aeaba9"
         id="polygon420" />
      <polygon
         points="96.091 126.782 101.771 130.061 101.771 129.76 96.091 126.481 96.091 126.782"
         style="fill: #aeaba9"
         id="polygon422" />
    </g>
    <path
       d="M131.99646,108.13074l-6.935,4.00184-.53679.3107-1.2454.715-.55957.31848-.11.09079h-.014l-.274.14151-1.69913.97763h-.0075l-.28794.177-1.44146.8387-13.924-8.04892-1.82773-1.056-13.929-8.03914L97.25513,93.91l.27163-.149.38778-.21989.25251-.14642,4.15213-2.39763,13.93671,8.03885,1.828,1.056Z"
       style="fill: #fff;opacity: 0.5;isolation: isolate"
       id="path426" />
    <polygon
       points="118.91 139.334 131.996 131.831 131.996 108.131 118.91 115.702 118.91 139.334"
       style="fill: #fff;opacity: 0.5;isolation: isolate"
       id="polygon428" />
  </g>
  <g
     id="g656">
    <polygon
       points="98.556 148.429 61.896 169.593 26.319 149.054 26.319 148.217 62.975 127.886 98.556 147.597 98.556 148.429"
       style="fill: #7d5b28"
       id="polygon432" />
    <polygon
       points="98.556 147.589 61.894 168.76 60.311 167.859 57.679 166.328 52.952 163.588 47.738 160.586 45.112 159.081 40.377 156.333 35.313 153.404 32.661 151.873 27.949 149.149 26.312 148.211 27.949 147.266 32.661 144.55 35.313 143.018 62.979 127.053 98.556 147.589"
       style="fill: #aa8c4a"
       id="polygon434" />
    <polygon
       points="67.485 129.659 30.831 150.817 30.722 150.754 67.378 129.593 67.485 129.659"
       style="fill: #d2a966"
       id="polygon436" />
    <polygon
       points="71.93 132.225 35.279 153.389 35.169 153.328 71.824 132.165 71.93 132.225"
       style="fill: #d2a966"
       id="polygon438" />
    <polygon
       points="76.38 134.791 39.72 155.955 39.615 155.895 76.271 134.728 76.38 134.791"
       style="fill: #d2a966"
       id="polygon440" />
    <polygon
       points="80.823 137.358 44.167 158.521 44.062 158.458 80.717 137.292 80.823 137.358"
       style="fill: #d2a966"
       id="polygon442" />
    <polygon
       points="85.272 139.919 48.617 161.087 48.507 161.027 85.165 139.864 85.272 139.919"
       style="fill: #d2a966"
       id="polygon444" />
    <polygon
       points="89.716 142.49 53.059 163.659 52.952 163.591 89.61 142.43 89.716 142.49"
       style="fill: #d2a966"
       id="polygon446" />
    <polygon
       points="94.159 145.057 57.51 166.22 57.401 166.165 94.053 144.996 94.159 145.057"
       style="fill: #d2a966"
       id="polygon448" />
    <path
       d="M33.91135,143.09959V152.619l-4.71112-2.724v-4.29986C30.72906,144.69952,32.32733,143.89819,33.91135,143.09959Z"
       style="fill: #6c4b1f"
       id="path450" />
    <polygon
       points="36.564 143.026 36.564 151.045 33.911 152.619 33.911 143.026 36.564 143.026"
       style="fill: #7d5b28"
       id="polygon452" />
    <polygon
       points="46.357 150.392 46.357 159.819 41.627 157.074 41.627 150.392 46.357 150.392"
       style="fill: #6c4b1f"
       id="polygon454" />
    <polygon
       points="48.989 150.392 48.989 158.23 46.357 159.819 46.357 150.392 48.989 150.392"
       style="fill: #7d5b28"
       id="polygon456" />
    <polygon
       points="78.547 149.971 78.547 159.265 73.821 156.53 73.821 149.971 78.547 149.971"
       style="fill: #6c4b1f"
       id="polygon458" />
    <polygon
       points="81.178 149.971 81.178 157.702 78.547 159.265 78.547 149.971 81.178 149.971"
       style="fill: #7d5b28"
       id="polygon460" />
    <polygon
       points="61.857 159.656 61.857 168.96 57.133 166.22 57.133 159.656 61.857 159.656"
       style="fill: #6c4b1f"
       id="polygon462" />
    <polygon
       points="64.488 159.656 64.488 167.394 61.857 168.96 61.857 159.656 64.488 159.656"
       style="fill: #7d5b28"
       id="polygon464" />
    <polygon
       points="89.716 144.534 89.716 147.25 94.444 149.99 94.444 144.534 89.716 144.534"
       style="fill: #6c4b1f"
       id="polygon466" />
    <polygon
       points="94.444 144.534 94.444 149.99 97.078 148.424 97.078 144.534 94.444 144.534"
       style="fill: #7d5b28"
       id="polygon468" />
    <polygon
       points="98.556 144.812 61.896 165.979 26.319 145.443 26.319 144.66 62.975 124.274 98.556 144.038 98.556 144.812"
       style="fill: #997235"
       id="polygon470" />
    <g
       id="g488">
      <polygon
         points="98.556 144.038 61.896 165.204 26.319 144.66 62.975 123.497 98.556 144.038"
         style="fill: #d2a966"
         id="polygon472" />
      <polygon
         points="67.485 126.097 30.831 147.266 30.722 147.208 67.378 126.034 67.485 126.097"
         style="fill: #7c581d"
         id="polygon474" />
      <polygon
         points="71.93 128.663 35.279 149.832 35.169 149.772 71.824 128.606 71.93 128.663"
         style="fill: #7c581d"
         id="polygon476" />
      <polygon
         points="76.38 131.235 39.72 152.398 39.615 152.335 76.271 131.174 76.38 131.235"
         style="fill: #7c581d"
         id="polygon478" />
      <polygon
         points="80.823 133.796 44.167 154.965 44.062 154.899 80.717 133.733 80.823 133.796"
         style="fill: #7c581d"
         id="polygon480" />
      <polygon
         points="85.272 136.367 48.617 157.526 48.507 157.47 85.165 136.307 85.272 136.367"
         style="fill: #7c581d"
         id="polygon482" />
      <polygon
         points="89.716 138.934 53.059 160.105 52.952 160.037 89.61 138.873 89.716 138.934"
         style="fill: #7c581d"
         id="polygon484" />
      <polygon
         points="94.159 141.503 57.51 162.666 57.401 162.603 94.053 141.445 94.159 141.503"
         style="fill: #7c581d"
         id="polygon486" />
    </g>
    <polygon
       points="61.896 169.593 61.857 168.755 26.312 148.211 26.319 149.054 61.896 169.593"
       style="fill: #6c4b1f"
       id="polygon490" />
    <g
       id="g520">
      <g
         id="g500">
        <path
           d="M70.67429,111.06205l-2.01087-1.16565-6.29672-3.628-16.18515,9.34577,6.289,3.6224,2.02927,1.16875,6.94227,4.00533,16.15341-9.33556.01074-.01076Z"
           style="fill: #f5dba8"
           id="path492" />
        <path
           d="M62.36673,106.58933l-15.61639,9.02428,14.69238,8.37668,15.601-8.92652Z"
           style="fill: #ebc78b"
           id="path494" />
        <polygon
           points="61.442 124.411 61.424 145.198 54.452 141.22 52.426 140.064 46.182 136.497 46.182 115.614 61.442 124.411"
           style="fill: #aa7b4b"
           id="polygon496" />
        <path
           d="M61.44217,124.41061l-.021,20.78739,16.19025-9.26081V115.07507Z"
           style="fill: #cda569"
           id="path498" />
      </g>
      <polygon
         points="54.452 120.434 54.452 141.22 52.426 140.064 52.426 119.271 54.452 120.434"
         style="fill: #8c8c8c;opacity: 0.33000001311302185;isolation: isolate"
         id="polygon502" />
      <polygon
         points="70.674 111.062 65.02 114.334 62.998 115.505 54.5 120.405 54.439 120.434 52.412 119.271 52.471 119.237 60.975 114.334 62.998 113.157 68.663 109.896 70.674 111.062"
         style="fill: #8c8c8c;opacity: 0.33000001311302185;isolation: isolate"
         id="polygon504" />
      <g
         id="g518">
        <polygon
           points="74.378 127.676 66.97 131.949 66.97 125.585 74.378 121.312 74.378 127.676"
           style="fill: #e2deda"
           id="polygon506" />
        <polygon
           points="73.677 123.222 67.674 126.688 67.674 125.97 73.677 122.507 73.677 123.222"
           style="fill: #3f3f3f"
           id="polygon508" />
        <polygon
           points="73.677 124.499 67.674 127.965 67.674 127.655 73.677 124.18 73.677 124.499"
           style="fill: #aeaba9"
           id="polygon510" />
        <polygon
           points="73.677 125.336 67.674 128.802 67.674 128.483 73.677 125.025 73.677 125.336"
           style="fill: #aeaba9"
           id="polygon512" />
        <polygon
           points="73.677 126.236 67.674 129.702 67.674 129.392 73.677 125.928 73.677 126.236"
           style="fill: #aeaba9"
           id="polygon514" />
        <polygon
           points="73.677 127.076 67.674 130.531 67.674 130.22 73.677 126.762 73.677 127.076"
           style="fill: #aeaba9"
           id="polygon516" />
      </g>
    </g>
    <g
       id="g550">
      <g
         id="g530">
        <path
           d="M86.00613,120.05711l-2.01086-1.16565-6.29672-3.628L61.5134,124.60921l6.289,3.6224,2.02927,1.16875,6.94226,4.00533,16.15341-9.33555.01074-.01075Z"
           style="fill: #f5dba8"
           id="path522" />
        <path
           d="M77.69855,115.58437l-15.6164,9.02428,14.69239,8.37669,15.601-8.92652Z"
           style="fill: #ebc78b"
           id="path524" />
        <polygon
           points="76.774 133.406 76.756 154.193 69.784 150.215 67.757 149.059 61.513 145.492 61.513 124.609 76.774 133.406"
           style="fill: #aa7b4b"
           id="polygon526" />
        <path
           d="M76.774,133.40565l-.021,20.7874,16.19025-9.2608V124.07011Z"
           style="fill: #cda569"
           id="path528" />
      </g>
      <polygon
         points="69.784 129.429 69.784 150.215 67.757 149.059 67.757 128.266 69.784 129.429"
         style="fill: #8c8c8c;opacity: 0.33000001311302185;isolation: isolate"
         id="polygon532" />
      <polygon
         points="86.006 120.057 80.352 123.329 78.33 124.5 69.832 129.4 69.771 129.429 67.744 128.266 67.802 128.232 76.307 123.329 78.33 122.152 83.995 118.891 86.006 120.057"
         style="fill: #8c8c8c;opacity: 0.33000001311302185;isolation: isolate"
         id="polygon534" />
      <g
         id="g548">
        <polygon
           points="89.71 136.671 82.302 140.944 82.302 134.581 89.71 130.307 89.71 136.671"
           style="fill: #e2deda"
           id="polygon536" />
        <polygon
           points="89.009 132.217 83.006 135.683 83.006 134.966 89.009 131.502 89.009 132.217"
           style="fill: #3f3f3f"
           id="polygon538" />
        <polygon
           points="89.009 133.494 83.006 136.96 83.006 136.65 89.009 133.175 89.009 133.494"
           style="fill: #aeaba9"
           id="polygon540" />
        <polygon
           points="89.009 134.331 83.006 137.797 83.006 137.478 89.009 134.02 89.009 134.331"
           style="fill: #aeaba9"
           id="polygon542" />
        <polygon
           points="89.009 135.231 83.006 138.697 83.006 138.387 89.009 134.923 89.009 135.231"
           style="fill: #aeaba9"
           id="polygon544" />
        <polygon
           points="89.009 136.071 83.006 139.526 83.006 139.215 89.009 135.757 89.009 136.071"
           style="fill: #aeaba9"
           id="polygon546" />
      </g>
    </g>
    <g
       id="g580">
      <g
         id="g560">
        <path
           d="M54.2822,120.25187l-2.01087-1.16565-6.29672-3.628L29.78946,124.804l6.289,3.62241,2.02927,1.16874L45.05,133.60046l16.1534-9.33556.01074-.01074Z"
           style="fill: #f5dba8"
           id="path552" />
        <path
           d="M45.97464,115.77914l-15.61639,9.02427,14.69238,8.37669,15.601-8.92652Z"
           style="fill: #ebc78b"
           id="path554" />
        <polygon
           points="45.05 133.6 45.032 154.388 38.06 150.41 36.033 149.254 29.789 145.687 29.789 124.804 45.05 133.6"
           style="fill: #aa7b4b"
           id="polygon556" />
        <path
           d="M45.05008,133.60043l-.021,20.7874L61.21933,145.127V124.26487Z"
           style="fill: #cda569"
           id="path558" />
      </g>
      <polygon
         points="38.06 129.624 38.06 150.41 36.033 149.254 36.033 128.461 38.06 129.624"
         style="fill: #8c8c8c;opacity: 0.33000001311302185;isolation: isolate"
         id="polygon562" />
      <polygon
         points="54.282 120.252 48.628 123.524 46.606 124.695 38.108 129.595 38.047 129.624 36.02 128.461 36.079 128.426 44.583 123.524 46.606 122.347 52.271 119.086 54.282 120.252"
         style="fill: #8c8c8c;opacity: 0.33000001311302185;isolation: isolate"
         id="polygon564" />
      <g
         id="g578">
        <polygon
           points="57.986 136.866 50.578 141.139 50.578 134.775 57.986 130.502 57.986 136.866"
           style="fill: #e2deda"
           id="polygon566" />
        <polygon
           points="57.285 132.412 51.282 135.877 51.282 135.16 57.285 131.697 57.285 132.412"
           style="fill: #3f3f3f"
           id="polygon568" />
        <polygon
           points="57.285 133.689 51.282 137.155 51.282 136.845 57.285 133.37 57.285 133.689"
           style="fill: #aeaba9"
           id="polygon570" />
        <polygon
           points="57.285 134.525 51.282 137.992 51.282 137.673 57.285 134.215 57.285 134.525"
           style="fill: #aeaba9"
           id="polygon572" />
        <polygon
           points="57.285 135.426 51.282 138.892 51.282 138.581 57.285 135.118 57.285 135.426"
           style="fill: #aeaba9"
           id="polygon574" />
        <polygon
           points="57.285 136.266 51.282 139.721 51.282 139.41 57.285 135.952 57.285 136.266"
           style="fill: #aeaba9"
           id="polygon576" />
      </g>
    </g>
    <g
       id="g610">
      <g
         id="g590">
        <path
           d="M69.70511,129.16406l-2.01087-1.16565-6.29672-3.628-16.18515,9.34578,6.289,3.6224,2.02927,1.16875,6.94226,4.00532,16.15341-9.33554.01074-.01075Z"
           style="fill: #f5dba8"
           id="path582" />
        <path
           d="M61.39755,124.69135l-15.61639,9.02429,14.69238,8.37668,15.601-8.92652Z"
           style="fill: #ebc78b"
           id="path584" />
        <polygon
           points="60.473 142.513 60.455 163.3 53.483 159.322 51.456 158.166 45.212 154.599 45.212 133.716 60.473 142.513"
           style="fill: #aa7b4b"
           id="polygon586" />
        <path
           d="M60.473,142.51263,60.452,163.3l16.19024-9.2608V133.17709Z"
           style="fill: #cda569"
           id="path588" />
      </g>
      <polygon
         points="53.483 138.536 53.483 159.322 51.456 158.166 51.456 137.373 53.483 138.536"
         style="fill: #8c8c8c;opacity: 0.33000001311302185;isolation: isolate"
         id="polygon592" />
      <polygon
         points="69.705 129.164 64.051 132.436 62.029 133.607 53.531 138.507 53.47 138.536 51.443 137.373 51.501 137.339 60.006 132.436 62.029 131.259 67.694 127.998 69.705 129.164"
         style="fill: #8c8c8c;opacity: 0.33000001311302185;isolation: isolate"
         id="polygon594" />
      <g
         id="g608">
        <polygon
           points="73.409 145.778 66.001 150.051 66.001 143.687 73.409 139.414 73.409 145.778"
           style="fill: #e2deda"
           id="polygon596" />
        <polygon
           points="72.708 141.324 66.705 144.79 66.705 144.072 72.708 140.609 72.708 141.324"
           style="fill: #3f3f3f"
           id="polygon598" />
        <polygon
           points="72.708 142.601 66.705 146.067 66.705 145.757 72.708 142.282 72.708 142.601"
           style="fill: #aeaba9"
           id="polygon600" />
        <polygon
           points="72.708 143.438 66.705 146.904 66.705 146.585 72.708 143.127 72.708 143.438"
           style="fill: #aeaba9"
           id="polygon602" />
        <polygon
           points="72.708 144.338 66.705 147.804 66.705 147.494 72.708 144.03 72.708 144.338"
           style="fill: #aeaba9"
           id="polygon604" />
        <polygon
           points="72.708 145.178 66.705 148.633 66.705 148.322 72.708 144.864 72.708 145.178"
           style="fill: #aeaba9"
           id="polygon606" />
      </g>
    </g>
    <g
       style="opacity: 0.4000000059604645"
       id="g614">
      <polygon
         points="60.556 144.477 29.747 126.686 29.747 143.586 60.556 161.374 60.556 144.477"
         style="fill: #fff"
         id="polygon612" />
    </g>
    <g
       style="opacity: 0.4000000059604645"
       id="g618">
      <polygon
         points="60.473 144.596 93.016 125.783 93.016 142.683 60.473 161.493 60.473 144.596"
         style="fill: #fff"
         id="polygon616" />
    </g>
    <polygon
       points="60.505 114.587 43.625 123.804 51.435 128.321 51.38 128.358 60.698 133.748 77.385 123.77 60.505 114.587"
       style="fill: #1c1c1c;opacity: 0.07999999821186066;isolation: isolate"
       id="polygon620" />
    <path
       d="M83.61758,129.26717l-6.63732,3.83006-.51378.29736-1.19191.68436-.53556.30479-.10522.08692h-.01337l-.2622.13543-1.62623.93567h-.0072l-.27557.16936-1.37961.8027-13.32638-7.70347-1.74927-1.0107-15.26889-9.10624,12.55142-7.23675,15.27606,9.106,1.74954,1.0107Z"
       style="fill: #fff;opacity: 0.5;isolation: isolate"
       id="path622" />
    <polygon
       points="71.093 157.687 83.618 150.505 83.618 129.362 71.093 136.609 71.093 157.687"
       style="fill: #fff;opacity: 0.5;isolation: isolate"
       id="polygon624" />
    <g
       id="g654">
      <g
         id="g634">
        <path
           d="M70.50571,100.508,68.576,99.38937l-6.0428-3.48171-15.53241,8.96886,6.0354,3.4763,1.94745,1.1216,6.66226,3.84378,15.50193-8.959.0103-.01032Z"
           style="fill: #f5dba8"
           id="path626" />
        <path
           d="M62.53317,96.21616,47.5466,104.87652l14.09982,8.03882,14.97184-8.56649Z"
           style="fill: #ebc78b"
           id="path628" />
        <polygon
           points="61.646 113.318 61.628 133.267 54.938 129.449 52.993 128.341 47.001 124.918 47.001 104.876 61.646 113.318"
           style="fill: #aa7b4b"
           id="polygon630" />
        <path
           d="M61.64639,113.31818l-.02014,19.949,15.53729-8.88731V104.35915Z"
           style="fill: #cda569"
           id="path632" />
      </g>
      <polygon
         points="54.938 109.503 54.938 129.449 52.993 128.341 52.993 108.386 54.938 109.503"
         style="fill: #8c8c8c;opacity: 0.33000001311302185;isolation: isolate"
         id="polygon636" />
      <polygon
         points="70.506 100.508 65.079 103.648 63.14 104.772 54.984 109.475 54.925 109.503 52.98 108.386 53.037 108.353 61.198 103.648 63.14 102.519 68.576 99.389 70.506 100.508"
         style="fill: #8c8c8c;opacity: 0.33000001311302185;isolation: isolate"
         id="polygon638" />
      <g
         id="g652">
        <polygon
           points="74.06 116.452 66.952 120.553 66.952 114.446 74.06 110.345 74.06 116.452"
           style="fill: #e2deda"
           id="polygon640" />
        <polygon
           points="73.388 112.177 67.627 115.504 67.627 114.816 73.388 111.492 73.388 112.177"
           style="fill: #3f3f3f"
           id="polygon642" />
        <polygon
           points="73.388 113.404 67.627 116.73 67.627 116.431 73.388 113.098 73.388 113.404"
           style="fill: #aeaba9"
           id="polygon644" />
        <polygon
           points="73.388 114.206 67.627 117.533 67.627 117.227 73.388 113.908 73.388 114.206"
           style="fill: #aeaba9"
           id="polygon646" />
        <polygon
           points="73.388 115.071 67.627 118.397 67.627 118.098 73.388 114.775 73.388 115.071"
           style="fill: #aeaba9"
           id="polygon648" />
        <polygon
           points="73.388 115.876 67.627 119.192 67.627 118.894 73.388 115.575 73.388 115.876"
           style="fill: #aeaba9"
           id="polygon650" />
      </g>
    </g>
  </g>
</svg>
